G04 #@! TF.GenerationSoftware,KiCad,Pcbnew,7.0.1*
G04 #@! TF.CreationDate,2023-08-05T15:02:17+05:30*
G04 #@! TF.ProjectId,omni,6f6d6e69-2e6b-4696-9361-645f70636258,rev?*
G04 #@! TF.SameCoordinates,Original*
G04 #@! TF.FileFunction,Soldermask,Bot*
G04 #@! TF.FilePolarity,Negative*
%FSLAX46Y46*%
G04 Gerber Fmt 4.6, Leading zero omitted, Abs format (unit mm)*
G04 Created by KiCad (PCBNEW 7.0.1) date 2023-08-05 15:02:17*
%MOMM*%
%LPD*%
G01*
G04 APERTURE LIST*
G04 Aperture macros list*
%AMRoundRect*
0 Rectangle with rounded corners*
0 $1 Rounding radius*
0 $2 $3 $4 $5 $6 $7 $8 $9 X,Y pos of 4 corners*
0 Add a 4 corners polygon primitive as box body*
4,1,4,$2,$3,$4,$5,$6,$7,$8,$9,$2,$3,0*
0 Add four circle primitives for the rounded corners*
1,1,$1+$1,$2,$3*
1,1,$1+$1,$4,$5*
1,1,$1+$1,$6,$7*
1,1,$1+$1,$8,$9*
0 Add four rect primitives between the rounded corners*
20,1,$1+$1,$2,$3,$4,$5,0*
20,1,$1+$1,$4,$5,$6,$7,0*
20,1,$1+$1,$6,$7,$8,$9,0*
20,1,$1+$1,$8,$9,$2,$3,0*%
G04 Aperture macros list end*
%ADD10RoundRect,0.225000X0.225000X0.375000X-0.225000X0.375000X-0.225000X-0.375000X0.225000X-0.375000X0*%
%ADD11C,1.750000*%
%ADD12C,3.987800*%
%ADD13C,2.250000*%
%ADD14C,4.400000*%
%ADD15C,2.000000*%
%ADD16R,2.000000X3.200000*%
%ADD17R,2.000000X2.000000*%
%ADD18C,3.048000*%
%ADD19R,1.200000X0.900000*%
%ADD20R,0.900000X1.200000*%
%ADD21RoundRect,0.218750X-0.218750X-0.256250X0.218750X-0.256250X0.218750X0.256250X-0.218750X0.256250X0*%
%ADD22RoundRect,0.218750X-0.256250X0.218750X-0.256250X-0.218750X0.256250X-0.218750X0.256250X0.218750X0*%
%ADD23RoundRect,0.218750X0.256250X-0.218750X0.256250X0.218750X-0.256250X0.218750X-0.256250X-0.218750X0*%
%ADD24RoundRect,0.250000X0.625000X-0.375000X0.625000X0.375000X-0.625000X0.375000X-0.625000X-0.375000X0*%
%ADD25R,1.060000X0.650000*%
%ADD26C,0.650000*%
%ADD27R,0.600000X1.450000*%
%ADD28R,0.300000X1.450000*%
%ADD29O,1.000000X1.600000*%
%ADD30O,1.000000X2.100000*%
%ADD31RoundRect,0.200000X-0.200000X-0.800000X0.200000X-0.800000X0.200000X0.800000X-0.200000X0.800000X0*%
%ADD32R,1.700000X1.700000*%
%ADD33O,1.700000X1.700000*%
%ADD34RoundRect,0.062500X-0.475000X-0.062500X0.475000X-0.062500X0.475000X0.062500X-0.475000X0.062500X0*%
%ADD35RoundRect,0.062500X-0.062500X-0.475000X0.062500X-0.475000X0.062500X0.475000X-0.062500X0.475000X0*%
%ADD36R,5.200000X5.200000*%
%ADD37RoundRect,0.225000X0.250000X-0.225000X0.250000X0.225000X-0.250000X0.225000X-0.250000X-0.225000X0*%
%ADD38R,1.400000X1.200000*%
%ADD39RoundRect,0.225000X0.375000X-0.225000X0.375000X0.225000X-0.375000X0.225000X-0.375000X-0.225000X0*%
G04 APERTURE END LIST*
D10*
X342348000Y-245394000D03*
X339048000Y-245394000D03*
D11*
X288608000Y-242094000D03*
D12*
X293688000Y-242094000D03*
D11*
X298768000Y-242094000D03*
D13*
X289878000Y-239554000D03*
X296228000Y-237014000D03*
D14*
X288240000Y-246793000D03*
X332473500Y-246793000D03*
X332473500Y-180245000D03*
X288240000Y-180245000D03*
D11*
X417195500Y-242094000D03*
D12*
X422275500Y-242094000D03*
D11*
X427355500Y-242094000D03*
D13*
X418465500Y-239554000D03*
X424815500Y-237014000D03*
D11*
X250508000Y-242094000D03*
D12*
X255588000Y-242094000D03*
D11*
X260668000Y-242094000D03*
D13*
X251778000Y-239554000D03*
X258128000Y-237014000D03*
D11*
X212408000Y-223044000D03*
D12*
X217488000Y-223044000D03*
D11*
X222568000Y-223044000D03*
D13*
X213678000Y-220504000D03*
X220028000Y-217964000D03*
D11*
X398145500Y-223044000D03*
D12*
X403225500Y-223044000D03*
D11*
X408305500Y-223044000D03*
D13*
X399415500Y-220504000D03*
X405765500Y-217964000D03*
D11*
X321945500Y-223044000D03*
D12*
X327025500Y-223044000D03*
D11*
X332105500Y-223044000D03*
D13*
X323215500Y-220504000D03*
X329565500Y-217964000D03*
D11*
X250508000Y-223044000D03*
D12*
X255588000Y-223044000D03*
D11*
X260668000Y-223044000D03*
D13*
X251778000Y-220504000D03*
X258128000Y-217964000D03*
D11*
X360045500Y-223044000D03*
D12*
X365125500Y-223044000D03*
D11*
X370205500Y-223044000D03*
D13*
X361315500Y-220504000D03*
X367665500Y-217964000D03*
D11*
X231458000Y-223044000D03*
D12*
X236538000Y-223044000D03*
D11*
X241618000Y-223044000D03*
D13*
X232728000Y-220504000D03*
X239078000Y-217964000D03*
D11*
X231458000Y-242094000D03*
D12*
X236538000Y-242094000D03*
D11*
X241618000Y-242094000D03*
D13*
X232728000Y-239554000D03*
X239078000Y-237014000D03*
D11*
X379095500Y-223044000D03*
D12*
X384175500Y-223044000D03*
D11*
X389255500Y-223044000D03*
D13*
X380365500Y-220504000D03*
X386715500Y-217964000D03*
D15*
X419775500Y-177944000D03*
X424775500Y-177944000D03*
D16*
X427875500Y-184944000D03*
X416675500Y-184944000D03*
D15*
X422275500Y-192444000D03*
X424775500Y-192444000D03*
D17*
X419775500Y-192444000D03*
D11*
X269558000Y-242094000D03*
D12*
X274638000Y-242094000D03*
D11*
X279718000Y-242094000D03*
D13*
X270828000Y-239554000D03*
X277178000Y-237014000D03*
D11*
X212408000Y-242094000D03*
D12*
X217488000Y-242094000D03*
D11*
X222568000Y-242094000D03*
D13*
X213678000Y-239554000D03*
X220028000Y-237014000D03*
D11*
X193358000Y-242094000D03*
D12*
X198438000Y-242094000D03*
D11*
X203518000Y-242094000D03*
D13*
X194628000Y-239554000D03*
X200978000Y-237014000D03*
D11*
X340995500Y-223044000D03*
D12*
X346075500Y-223044000D03*
D11*
X351155500Y-223044000D03*
D13*
X342265500Y-220504000D03*
X348615500Y-217964000D03*
D11*
X269558000Y-223044000D03*
D12*
X274638000Y-223044000D03*
D11*
X279718000Y-223044000D03*
D13*
X270828000Y-220504000D03*
X277178000Y-217964000D03*
D11*
X193358000Y-184944000D03*
D12*
X198438000Y-184944000D03*
D11*
X203518000Y-184944000D03*
D13*
X194628000Y-182404000D03*
X200978000Y-179864000D03*
D11*
X398145500Y-203994000D03*
D12*
X403225500Y-203994000D03*
D11*
X408305500Y-203994000D03*
D13*
X399415500Y-201454000D03*
X405765500Y-198914000D03*
D11*
X231458000Y-203994000D03*
D12*
X236538000Y-203994000D03*
D11*
X241618000Y-203994000D03*
D13*
X232728000Y-201454000D03*
X239078000Y-198914000D03*
D11*
X212408000Y-203994000D03*
D12*
X217488000Y-203994000D03*
D11*
X222568000Y-203994000D03*
D13*
X213678000Y-201454000D03*
X220028000Y-198914000D03*
D11*
X193358000Y-203994000D03*
D12*
X198438000Y-203994000D03*
D11*
X203518000Y-203994000D03*
D13*
X194628000Y-201454000D03*
X200978000Y-198914000D03*
X424815500Y-179864000D03*
X418465500Y-182404000D03*
D11*
X427355500Y-184944000D03*
D12*
X422275500Y-184944000D03*
D11*
X417195500Y-184944000D03*
X379095500Y-184944000D03*
D12*
X384175500Y-184944000D03*
D11*
X389255500Y-184944000D03*
D13*
X380365500Y-182404000D03*
X386715500Y-179864000D03*
D11*
X340995500Y-184944000D03*
D12*
X346075500Y-184944000D03*
D11*
X351155500Y-184944000D03*
D13*
X342265500Y-182404000D03*
X348615500Y-179864000D03*
D11*
X250508000Y-184944000D03*
D12*
X255588000Y-184944000D03*
D11*
X260668000Y-184944000D03*
D13*
X251778000Y-182404000D03*
X258128000Y-179864000D03*
X296228000Y-179864000D03*
X289878000Y-182404000D03*
D11*
X298768000Y-184944000D03*
D12*
X293688000Y-184944000D03*
D11*
X288608000Y-184944000D03*
X408305500Y-184944000D03*
D12*
X403225500Y-184944000D03*
D11*
X398145500Y-184944000D03*
D13*
X407035500Y-187484000D03*
X400685500Y-190024000D03*
D11*
X231458000Y-184944000D03*
D12*
X236538000Y-184944000D03*
D11*
X241618000Y-184944000D03*
D13*
X232728000Y-182404000D03*
X239078000Y-179864000D03*
D11*
X269558000Y-203994000D03*
D12*
X274638000Y-203994000D03*
D11*
X279718000Y-203994000D03*
D13*
X270828000Y-201454000D03*
X277178000Y-198914000D03*
D11*
X360045500Y-184944000D03*
D12*
X365125500Y-184944000D03*
D11*
X370205500Y-184944000D03*
D13*
X361315500Y-182404000D03*
X367665500Y-179864000D03*
D11*
X417195500Y-203994000D03*
D12*
X422275500Y-203994000D03*
D11*
X427355500Y-203994000D03*
D13*
X418465500Y-201454000D03*
X424815500Y-198914000D03*
D11*
X340995500Y-203994000D03*
D12*
X346075500Y-203994000D03*
D11*
X351155500Y-203994000D03*
D13*
X342265500Y-201454000D03*
X348615500Y-198914000D03*
D11*
X288608000Y-203994000D03*
D12*
X293688000Y-203994000D03*
D11*
X298768000Y-203994000D03*
D13*
X289878000Y-201454000D03*
X296228000Y-198914000D03*
D11*
X212408000Y-184944000D03*
D12*
X217488000Y-184944000D03*
D11*
X222568000Y-184944000D03*
D13*
X213678000Y-182404000D03*
X220028000Y-179864000D03*
X329565500Y-179864000D03*
X323215500Y-182404000D03*
D11*
X332105500Y-184944000D03*
D12*
X327025500Y-184944000D03*
D11*
X321945500Y-184944000D03*
X250508000Y-203994000D03*
D12*
X255588000Y-203994000D03*
D11*
X260668000Y-203994000D03*
D13*
X251778000Y-201454000D03*
X258128000Y-198914000D03*
D11*
X360045500Y-203994000D03*
D12*
X365125500Y-203994000D03*
D11*
X370205500Y-203994000D03*
D13*
X361315500Y-201454000D03*
X367665500Y-198914000D03*
D11*
X321945500Y-203994000D03*
D12*
X327025500Y-203994000D03*
D11*
X332105500Y-203994000D03*
D13*
X323215500Y-201454000D03*
X329565500Y-198914000D03*
D11*
X269558000Y-184944000D03*
D12*
X274638000Y-184944000D03*
D11*
X279718000Y-184944000D03*
D13*
X270828000Y-182404000D03*
X277178000Y-179864000D03*
D11*
X193358000Y-223044000D03*
D12*
X198438000Y-223044000D03*
D11*
X203518000Y-223044000D03*
D13*
X194628000Y-220504000D03*
X200978000Y-217964000D03*
D14*
X218637500Y-229242750D03*
X265587500Y-240692750D03*
X296437500Y-194469000D03*
X327087500Y-213519000D03*
X394798000Y-186994000D03*
X220237500Y-194468750D03*
D11*
X379084400Y-203992800D03*
D12*
X384164400Y-203992800D03*
D11*
X389244400Y-203992800D03*
D13*
X380354400Y-201452800D03*
X386704400Y-198912800D03*
D15*
X195928000Y-235064000D03*
X200928000Y-235064000D03*
D16*
X204028000Y-242064000D03*
X192828000Y-242064000D03*
D15*
X198428000Y-249564000D03*
X200928000Y-249564000D03*
D17*
X195928000Y-249564000D03*
D11*
X288608000Y-223044000D03*
D12*
X293688000Y-223044000D03*
D11*
X298768000Y-223044000D03*
D13*
X289878000Y-220504000D03*
X296228000Y-217964000D03*
D11*
X360045500Y-242094000D03*
D12*
X365125500Y-242094000D03*
D11*
X370205500Y-242094000D03*
D13*
X361315500Y-239554000D03*
X367665500Y-237014000D03*
D12*
X324644250Y-233839000D03*
D18*
X324644250Y-249079000D03*
D11*
X331470500Y-242094000D03*
D12*
X336550500Y-242094000D03*
D11*
X341630500Y-242094000D03*
D12*
X348456750Y-233839000D03*
D18*
X348456750Y-249079000D03*
D13*
X332740500Y-239554000D03*
X339090500Y-237014000D03*
D12*
X272256750Y-233839000D03*
D18*
X272256750Y-249079000D03*
D11*
X279083000Y-242094000D03*
D12*
X284163000Y-242094000D03*
D11*
X289243000Y-242094000D03*
D12*
X296069250Y-233839000D03*
D18*
X296069250Y-249079000D03*
D13*
X280353000Y-239554000D03*
X286703000Y-237014000D03*
D11*
X398145500Y-242094000D03*
D12*
X403225500Y-242094000D03*
D11*
X408305500Y-242094000D03*
D13*
X399415500Y-239554000D03*
X405765500Y-237014000D03*
D11*
X417195500Y-223044000D03*
D12*
X422275500Y-223044000D03*
D11*
X427355500Y-223044000D03*
D13*
X418465500Y-220504000D03*
X424815500Y-217964000D03*
D11*
X321945500Y-242094000D03*
D12*
X327025500Y-242094000D03*
D11*
X332105500Y-242094000D03*
D13*
X323215500Y-239554000D03*
X329565500Y-237014000D03*
X348615500Y-237014000D03*
X342265500Y-239554000D03*
D11*
X351155500Y-242094000D03*
D12*
X346075500Y-242094000D03*
D11*
X340995500Y-242094000D03*
X379095500Y-242094000D03*
D12*
X384175500Y-242094000D03*
D11*
X389255500Y-242094000D03*
D13*
X380365500Y-239554000D03*
X386715500Y-237014000D03*
D19*
X410782000Y-226345000D03*
X410782000Y-223045000D03*
X262954000Y-237648000D03*
X262954000Y-234348000D03*
X244047000Y-245387000D03*
X244047000Y-242087000D03*
X224885750Y-245387000D03*
X224885750Y-242087000D03*
X206963000Y-245387000D03*
X206963000Y-242087000D03*
D20*
X280479000Y-245396000D03*
X277179000Y-245396000D03*
D19*
X429895500Y-245387000D03*
X429895500Y-242087000D03*
X282147000Y-207287000D03*
X282147000Y-203987000D03*
X429895500Y-207287000D03*
X429895500Y-203987000D03*
X263097000Y-226337000D03*
X263097000Y-223037000D03*
X391684500Y-226337000D03*
X391684500Y-223037000D03*
X372634500Y-226337000D03*
X372634500Y-223037000D03*
X282147000Y-226337000D03*
X282147000Y-223037000D03*
X353584500Y-226337000D03*
X353584500Y-223037000D03*
X205962750Y-207287000D03*
X205962750Y-203987000D03*
X334534500Y-226337000D03*
X334534500Y-223037000D03*
X244047000Y-226337000D03*
X244047000Y-223037000D03*
X391684500Y-207287000D03*
X391684500Y-203987000D03*
X244047000Y-207287000D03*
X244047000Y-203987000D03*
X224997000Y-207287000D03*
X224997000Y-203987000D03*
X372634500Y-207287000D03*
X372634500Y-203987000D03*
X301197000Y-207287000D03*
X301197000Y-203987000D03*
X334534500Y-207287000D03*
X334534500Y-203987000D03*
X301197000Y-226337000D03*
X301197000Y-223037000D03*
X224997000Y-226337000D03*
X224997000Y-223037000D03*
X410734500Y-207287000D03*
X410734500Y-203987000D03*
X353584500Y-207287000D03*
X353584500Y-203987000D03*
X263097000Y-207287000D03*
X263097000Y-203987000D03*
X372634500Y-188237000D03*
X372634500Y-184937000D03*
D20*
X397321000Y-193326000D03*
X400621000Y-193326000D03*
D19*
X353584500Y-188237000D03*
X353584500Y-184937000D03*
X225028750Y-188173500D03*
X225028750Y-184873500D03*
X334534500Y-188237000D03*
X334534500Y-184937000D03*
X301228750Y-188173500D03*
X301228750Y-184873500D03*
X282178750Y-188173500D03*
X282178750Y-184873500D03*
X244078750Y-188173500D03*
X244078750Y-184873500D03*
X263128750Y-188173500D03*
X263128750Y-184873500D03*
D21*
X302679500Y-214789000D03*
X304254500Y-214789000D03*
D22*
X313627000Y-219843500D03*
X313627000Y-221418500D03*
D23*
X316167000Y-211385500D03*
X316167000Y-209810500D03*
X304559700Y-209607500D03*
X304559700Y-208032500D03*
D22*
X306388000Y-219970500D03*
X306388000Y-221545500D03*
D21*
X304457500Y-204502000D03*
X306032500Y-204502000D03*
D22*
X303721000Y-218065500D03*
X303721000Y-219640500D03*
D24*
X394526000Y-179486000D03*
X394526000Y-176686000D03*
D25*
X389169147Y-179175000D03*
X389169147Y-178225000D03*
X389169147Y-177275000D03*
X391369147Y-177275000D03*
X391369147Y-178225000D03*
X391369147Y-179175000D03*
D21*
X304407200Y-206434400D03*
X305982200Y-206434400D03*
D23*
X395669000Y-182683500D03*
X395669000Y-181108500D03*
D22*
X409067500Y-180283000D03*
X409067500Y-181858000D03*
D23*
X389229147Y-182810500D03*
X389229147Y-181235500D03*
X391388147Y-182810500D03*
X391388147Y-181235500D03*
X315659000Y-219259500D03*
X315659000Y-217684500D03*
D26*
X399144500Y-179859000D03*
X404924500Y-179859000D03*
D27*
X398809500Y-181304000D03*
X399584500Y-181304000D03*
D28*
X400284500Y-181304000D03*
X400784500Y-181304000D03*
X401284500Y-181304000D03*
X401784500Y-181304000D03*
X402284500Y-181304000D03*
X402784500Y-181304000D03*
X403284500Y-181304000D03*
X403784500Y-181304000D03*
D27*
X404484500Y-181304000D03*
X405259500Y-181304000D03*
D29*
X397714500Y-176209000D03*
D30*
X397714500Y-180389000D03*
D29*
X406354500Y-176209000D03*
D30*
X406354500Y-180389000D03*
D19*
X417640000Y-188628000D03*
X417640000Y-191928000D03*
X301197000Y-245387000D03*
X301197000Y-242087000D03*
D31*
X293366000Y-213265000D03*
X297566000Y-213265000D03*
D32*
X206502500Y-210993920D03*
D33*
X206502500Y-213533920D03*
X206502500Y-216073920D03*
D20*
X376112000Y-179864000D03*
X379412000Y-179864000D03*
D19*
X205962750Y-226337000D03*
X205962750Y-223037000D03*
D34*
X307019250Y-216019000D03*
X307019250Y-215519000D03*
X307019250Y-215019000D03*
X307019250Y-214519000D03*
X307019250Y-214019000D03*
X307019250Y-213519000D03*
X307019250Y-213019000D03*
X307019250Y-212519000D03*
X307019250Y-212019000D03*
X307019250Y-211519000D03*
X307019250Y-211019000D03*
D35*
X307856750Y-210181500D03*
X308356750Y-210181500D03*
X308856750Y-210181500D03*
X309356750Y-210181500D03*
X309856750Y-210181500D03*
X310356750Y-210181500D03*
X310856750Y-210181500D03*
X311356750Y-210181500D03*
X311856750Y-210181500D03*
X312356750Y-210181500D03*
X312856750Y-210181500D03*
D34*
X313694250Y-211019000D03*
X313694250Y-211519000D03*
X313694250Y-212019000D03*
X313694250Y-212519000D03*
X313694250Y-213019000D03*
X313694250Y-213519000D03*
X313694250Y-214019000D03*
X313694250Y-214519000D03*
X313694250Y-215019000D03*
X313694250Y-215519000D03*
X313694250Y-216019000D03*
D35*
X312856750Y-216856500D03*
X312356750Y-216856500D03*
X311856750Y-216856500D03*
X311356750Y-216856500D03*
X310856750Y-216856500D03*
X310356750Y-216856500D03*
X309856750Y-216856500D03*
X309356750Y-216856500D03*
X308856750Y-216856500D03*
X308356750Y-216856500D03*
X307856750Y-216856500D03*
D36*
X310356750Y-213519000D03*
D37*
X314722001Y-204131002D03*
X314722001Y-202581002D03*
X308626001Y-204131002D03*
X308626001Y-202581002D03*
D38*
X312774001Y-204206001D03*
X310574001Y-204206001D03*
X310574001Y-202506001D03*
X312774001Y-202506001D03*
D39*
X391684500Y-245387000D03*
X391684500Y-242087000D03*
X353584500Y-245387000D03*
X353584500Y-242087000D03*
X429895500Y-226337000D03*
X429895500Y-223037000D03*
X372634500Y-245387000D03*
X372634500Y-242087000D03*
X410782000Y-245395000D03*
X410782000Y-242095000D03*
X205978750Y-188173500D03*
X205978750Y-184873500D03*
M02*
