G04 #@! TF.GenerationSoftware,KiCad,Pcbnew,7.0.1*
G04 #@! TF.CreationDate,2023-08-05T15:02:17+05:30*
G04 #@! TF.ProjectId,omni,6f6d6e69-2e6b-4696-9361-645f70636258,rev?*
G04 #@! TF.SameCoordinates,Original*
G04 #@! TF.FileFunction,Paste,Bot*
G04 #@! TF.FilePolarity,Positive*
%FSLAX46Y46*%
G04 Gerber Fmt 4.6, Leading zero omitted, Abs format (unit mm)*
G04 Created by KiCad (PCBNEW 7.0.1) date 2023-08-05 15:02:17*
%MOMM*%
%LPD*%
G01*
G04 APERTURE LIST*
G04 Aperture macros list*
%AMRoundRect*
0 Rectangle with rounded corners*
0 $1 Rounding radius*
0 $2 $3 $4 $5 $6 $7 $8 $9 X,Y pos of 4 corners*
0 Add a 4 corners polygon primitive as box body*
4,1,4,$2,$3,$4,$5,$6,$7,$8,$9,$2,$3,0*
0 Add four circle primitives for the rounded corners*
1,1,$1+$1,$2,$3*
1,1,$1+$1,$4,$5*
1,1,$1+$1,$6,$7*
1,1,$1+$1,$8,$9*
0 Add four rect primitives between the rounded corners*
20,1,$1+$1,$2,$3,$4,$5,0*
20,1,$1+$1,$4,$5,$6,$7,0*
20,1,$1+$1,$6,$7,$8,$9,0*
20,1,$1+$1,$8,$9,$2,$3,0*%
G04 Aperture macros list end*
%ADD10RoundRect,0.225000X0.225000X0.375000X-0.225000X0.375000X-0.225000X-0.375000X0.225000X-0.375000X0*%
%ADD11R,1.200000X0.900000*%
%ADD12R,0.900000X1.200000*%
%ADD13RoundRect,0.218750X-0.218750X-0.256250X0.218750X-0.256250X0.218750X0.256250X-0.218750X0.256250X0*%
%ADD14RoundRect,0.218750X-0.256250X0.218750X-0.256250X-0.218750X0.256250X-0.218750X0.256250X0.218750X0*%
%ADD15RoundRect,0.218750X0.256250X-0.218750X0.256250X0.218750X-0.256250X0.218750X-0.256250X-0.218750X0*%
%ADD16RoundRect,0.250000X0.625000X-0.375000X0.625000X0.375000X-0.625000X0.375000X-0.625000X-0.375000X0*%
%ADD17R,1.060000X0.650000*%
%ADD18R,0.600000X1.450000*%
%ADD19R,0.300000X1.450000*%
%ADD20RoundRect,0.200000X-0.200000X-0.800000X0.200000X-0.800000X0.200000X0.800000X-0.200000X0.800000X0*%
%ADD21RoundRect,0.250000X-0.275000X-0.275000X0.275000X-0.275000X0.275000X0.275000X-0.275000X0.275000X0*%
%ADD22RoundRect,0.062500X-0.475000X-0.062500X0.475000X-0.062500X0.475000X0.062500X-0.475000X0.062500X0*%
%ADD23RoundRect,0.062500X-0.062500X-0.475000X0.062500X-0.475000X0.062500X0.475000X-0.062500X0.475000X0*%
%ADD24RoundRect,0.225000X0.250000X-0.225000X0.250000X0.225000X-0.250000X0.225000X-0.250000X-0.225000X0*%
%ADD25R,1.400000X1.200000*%
%ADD26RoundRect,0.225000X0.375000X-0.225000X0.375000X0.225000X-0.375000X0.225000X-0.375000X-0.225000X0*%
G04 APERTURE END LIST*
D10*
X342348000Y-245394000D03*
X339048000Y-245394000D03*
D11*
X410782000Y-226345000D03*
X410782000Y-223045000D03*
X262954000Y-237648000D03*
X262954000Y-234348000D03*
X244047000Y-245387000D03*
X244047000Y-242087000D03*
X224885750Y-245387000D03*
X224885750Y-242087000D03*
X206963000Y-245387000D03*
X206963000Y-242087000D03*
D12*
X280479000Y-245396000D03*
X277179000Y-245396000D03*
D11*
X429895500Y-245387000D03*
X429895500Y-242087000D03*
X282147000Y-207287000D03*
X282147000Y-203987000D03*
X429895500Y-207287000D03*
X429895500Y-203987000D03*
X263097000Y-226337000D03*
X263097000Y-223037000D03*
X391684500Y-226337000D03*
X391684500Y-223037000D03*
X372634500Y-226337000D03*
X372634500Y-223037000D03*
X282147000Y-226337000D03*
X282147000Y-223037000D03*
X353584500Y-226337000D03*
X353584500Y-223037000D03*
X205962750Y-207287000D03*
X205962750Y-203987000D03*
X334534500Y-226337000D03*
X334534500Y-223037000D03*
X244047000Y-226337000D03*
X244047000Y-223037000D03*
X391684500Y-207287000D03*
X391684500Y-203987000D03*
X244047000Y-207287000D03*
X244047000Y-203987000D03*
X224997000Y-207287000D03*
X224997000Y-203987000D03*
X372634500Y-207287000D03*
X372634500Y-203987000D03*
X301197000Y-207287000D03*
X301197000Y-203987000D03*
X334534500Y-207287000D03*
X334534500Y-203987000D03*
X301197000Y-226337000D03*
X301197000Y-223037000D03*
X224997000Y-226337000D03*
X224997000Y-223037000D03*
X410734500Y-207287000D03*
X410734500Y-203987000D03*
X353584500Y-207287000D03*
X353584500Y-203987000D03*
X263097000Y-207287000D03*
X263097000Y-203987000D03*
X372634500Y-188237000D03*
X372634500Y-184937000D03*
D12*
X397321000Y-193326000D03*
X400621000Y-193326000D03*
D11*
X353584500Y-188237000D03*
X353584500Y-184937000D03*
X225028750Y-188173500D03*
X225028750Y-184873500D03*
X334534500Y-188237000D03*
X334534500Y-184937000D03*
X301228750Y-188173500D03*
X301228750Y-184873500D03*
X282178750Y-188173500D03*
X282178750Y-184873500D03*
X244078750Y-188173500D03*
X244078750Y-184873500D03*
X263128750Y-188173500D03*
X263128750Y-184873500D03*
D13*
X302679500Y-214789000D03*
X304254500Y-214789000D03*
D14*
X313627000Y-219843500D03*
X313627000Y-221418500D03*
D15*
X316167000Y-211385500D03*
X316167000Y-209810500D03*
X304559700Y-209607500D03*
X304559700Y-208032500D03*
D14*
X306388000Y-219970500D03*
X306388000Y-221545500D03*
D13*
X304457500Y-204502000D03*
X306032500Y-204502000D03*
D14*
X303721000Y-218065500D03*
X303721000Y-219640500D03*
D16*
X394526000Y-179486000D03*
X394526000Y-176686000D03*
D17*
X389169147Y-179175000D03*
X389169147Y-178225000D03*
X389169147Y-177275000D03*
X391369147Y-177275000D03*
X391369147Y-178225000D03*
X391369147Y-179175000D03*
D13*
X304407200Y-206434400D03*
X305982200Y-206434400D03*
D15*
X395669000Y-182683500D03*
X395669000Y-181108500D03*
D14*
X409067500Y-180283000D03*
X409067500Y-181858000D03*
D15*
X389229147Y-182810500D03*
X389229147Y-181235500D03*
X391388147Y-182810500D03*
X391388147Y-181235500D03*
X315659000Y-219259500D03*
X315659000Y-217684500D03*
D18*
X398809500Y-181304000D03*
X399584500Y-181304000D03*
D19*
X400284500Y-181304000D03*
X400784500Y-181304000D03*
X401284500Y-181304000D03*
X401784500Y-181304000D03*
X402284500Y-181304000D03*
X402784500Y-181304000D03*
X403284500Y-181304000D03*
X403784500Y-181304000D03*
D18*
X404484500Y-181304000D03*
X405259500Y-181304000D03*
D11*
X417640000Y-188628000D03*
X417640000Y-191928000D03*
X301197000Y-245387000D03*
X301197000Y-242087000D03*
D20*
X293366000Y-213265000D03*
X297566000Y-213265000D03*
D12*
X376112000Y-179864000D03*
X379412000Y-179864000D03*
D11*
X205962750Y-226337000D03*
X205962750Y-223037000D03*
D21*
X308406750Y-211569000D03*
X308406750Y-212869000D03*
X308406750Y-214169000D03*
X308406750Y-215469000D03*
X309706750Y-211569000D03*
X309706750Y-212869000D03*
X309706750Y-214169000D03*
X309706750Y-215469000D03*
X311006750Y-211569000D03*
X311006750Y-212869000D03*
X311006750Y-214169000D03*
X311006750Y-215469000D03*
X312306750Y-211569000D03*
X312306750Y-212869000D03*
X312306750Y-214169000D03*
X312306750Y-215469000D03*
D22*
X307019250Y-216019000D03*
X307019250Y-215519000D03*
X307019250Y-215019000D03*
X307019250Y-214519000D03*
X307019250Y-214019000D03*
X307019250Y-213519000D03*
X307019250Y-213019000D03*
X307019250Y-212519000D03*
X307019250Y-212019000D03*
X307019250Y-211519000D03*
X307019250Y-211019000D03*
D23*
X307856750Y-210181500D03*
X308356750Y-210181500D03*
X308856750Y-210181500D03*
X309356750Y-210181500D03*
X309856750Y-210181500D03*
X310356750Y-210181500D03*
X310856750Y-210181500D03*
X311356750Y-210181500D03*
X311856750Y-210181500D03*
X312356750Y-210181500D03*
X312856750Y-210181500D03*
D22*
X313694250Y-211019000D03*
X313694250Y-211519000D03*
X313694250Y-212019000D03*
X313694250Y-212519000D03*
X313694250Y-213019000D03*
X313694250Y-213519000D03*
X313694250Y-214019000D03*
X313694250Y-214519000D03*
X313694250Y-215019000D03*
X313694250Y-215519000D03*
X313694250Y-216019000D03*
D23*
X312856750Y-216856500D03*
X312356750Y-216856500D03*
X311856750Y-216856500D03*
X311356750Y-216856500D03*
X310856750Y-216856500D03*
X310356750Y-216856500D03*
X309856750Y-216856500D03*
X309356750Y-216856500D03*
X308856750Y-216856500D03*
X308356750Y-216856500D03*
X307856750Y-216856500D03*
D24*
X314722001Y-204131002D03*
X314722001Y-202581002D03*
X308626001Y-204131002D03*
X308626001Y-202581002D03*
D25*
X312774001Y-204206001D03*
X310574001Y-204206001D03*
X310574001Y-202506001D03*
X312774001Y-202506001D03*
D26*
X391684500Y-245387000D03*
X391684500Y-242087000D03*
X353584500Y-245387000D03*
X353584500Y-242087000D03*
X429895500Y-226337000D03*
X429895500Y-223037000D03*
X372634500Y-245387000D03*
X372634500Y-242087000D03*
X410782000Y-245395000D03*
X410782000Y-242095000D03*
X205978750Y-188173500D03*
X205978750Y-184873500D03*
M02*
