G04 #@! TF.GenerationSoftware,KiCad,Pcbnew,7.0.1*
G04 #@! TF.CreationDate,2023-08-05T15:02:17+05:30*
G04 #@! TF.ProjectId,omni,6f6d6e69-2e6b-4696-9361-645f70636258,rev?*
G04 #@! TF.SameCoordinates,Original*
G04 #@! TF.FileFunction,AssemblyDrawing,Top*
%FSLAX46Y46*%
G04 Gerber Fmt 4.6, Leading zero omitted, Abs format (unit mm)*
G04 Created by KiCad (PCBNEW 7.0.1) date 2023-08-05 15:02:17*
%MOMM*%
%LPD*%
G01*
G04 APERTURE LIST*
%ADD10C,0.150000*%
%ADD11C,0.120000*%
G04 APERTURE END LIST*
D10*
X281668571Y-250455619D02*
X281668571Y-249455619D01*
X281668571Y-249455619D02*
X282001904Y-250169904D01*
X282001904Y-250169904D02*
X282335237Y-249455619D01*
X282335237Y-249455619D02*
X282335237Y-250455619D01*
X282954285Y-250455619D02*
X282859047Y-250408000D01*
X282859047Y-250408000D02*
X282811428Y-250360380D01*
X282811428Y-250360380D02*
X282763809Y-250265142D01*
X282763809Y-250265142D02*
X282763809Y-249979428D01*
X282763809Y-249979428D02*
X282811428Y-249884190D01*
X282811428Y-249884190D02*
X282859047Y-249836571D01*
X282859047Y-249836571D02*
X282954285Y-249788952D01*
X282954285Y-249788952D02*
X283097142Y-249788952D01*
X283097142Y-249788952D02*
X283192380Y-249836571D01*
X283192380Y-249836571D02*
X283239999Y-249884190D01*
X283239999Y-249884190D02*
X283287618Y-249979428D01*
X283287618Y-249979428D02*
X283287618Y-250265142D01*
X283287618Y-250265142D02*
X283239999Y-250360380D01*
X283239999Y-250360380D02*
X283192380Y-250408000D01*
X283192380Y-250408000D02*
X283097142Y-250455619D01*
X283097142Y-250455619D02*
X282954285Y-250455619D01*
X284144761Y-249788952D02*
X284144761Y-250455619D01*
X283716190Y-249788952D02*
X283716190Y-250312761D01*
X283716190Y-250312761D02*
X283763809Y-250408000D01*
X283763809Y-250408000D02*
X283859047Y-250455619D01*
X283859047Y-250455619D02*
X284001904Y-250455619D01*
X284001904Y-250455619D02*
X284097142Y-250408000D01*
X284097142Y-250408000D02*
X284144761Y-250360380D01*
X284620952Y-249788952D02*
X284620952Y-250455619D01*
X284620952Y-249884190D02*
X284668571Y-249836571D01*
X284668571Y-249836571D02*
X284763809Y-249788952D01*
X284763809Y-249788952D02*
X284906666Y-249788952D01*
X284906666Y-249788952D02*
X285001904Y-249836571D01*
X285001904Y-249836571D02*
X285049523Y-249931809D01*
X285049523Y-249931809D02*
X285049523Y-250455619D01*
X285382857Y-249788952D02*
X285763809Y-249788952D01*
X285525714Y-249455619D02*
X285525714Y-250312761D01*
X285525714Y-250312761D02*
X285573333Y-250408000D01*
X285573333Y-250408000D02*
X285668571Y-250455619D01*
X285668571Y-250455619D02*
X285763809Y-250455619D01*
X286097143Y-250455619D02*
X286097143Y-249788952D01*
X286097143Y-249455619D02*
X286049524Y-249503238D01*
X286049524Y-249503238D02*
X286097143Y-249550857D01*
X286097143Y-249550857D02*
X286144762Y-249503238D01*
X286144762Y-249503238D02*
X286097143Y-249455619D01*
X286097143Y-249455619D02*
X286097143Y-249550857D01*
X286573333Y-249788952D02*
X286573333Y-250455619D01*
X286573333Y-249884190D02*
X286620952Y-249836571D01*
X286620952Y-249836571D02*
X286716190Y-249788952D01*
X286716190Y-249788952D02*
X286859047Y-249788952D01*
X286859047Y-249788952D02*
X286954285Y-249836571D01*
X286954285Y-249836571D02*
X287001904Y-249931809D01*
X287001904Y-249931809D02*
X287001904Y-250455619D01*
X287906666Y-249788952D02*
X287906666Y-250598476D01*
X287906666Y-250598476D02*
X287859047Y-250693714D01*
X287859047Y-250693714D02*
X287811428Y-250741333D01*
X287811428Y-250741333D02*
X287716190Y-250788952D01*
X287716190Y-250788952D02*
X287573333Y-250788952D01*
X287573333Y-250788952D02*
X287478095Y-250741333D01*
X287906666Y-250408000D02*
X287811428Y-250455619D01*
X287811428Y-250455619D02*
X287620952Y-250455619D01*
X287620952Y-250455619D02*
X287525714Y-250408000D01*
X287525714Y-250408000D02*
X287478095Y-250360380D01*
X287478095Y-250360380D02*
X287430476Y-250265142D01*
X287430476Y-250265142D02*
X287430476Y-249979428D01*
X287430476Y-249979428D02*
X287478095Y-249884190D01*
X287478095Y-249884190D02*
X287525714Y-249836571D01*
X287525714Y-249836571D02*
X287620952Y-249788952D01*
X287620952Y-249788952D02*
X287811428Y-249788952D01*
X287811428Y-249788952D02*
X287906666Y-249836571D01*
X288382857Y-250455619D02*
X288382857Y-249455619D01*
X288382857Y-249931809D02*
X288954285Y-249931809D01*
X288954285Y-250455619D02*
X288954285Y-249455619D01*
X289573333Y-250455619D02*
X289478095Y-250408000D01*
X289478095Y-250408000D02*
X289430476Y-250360380D01*
X289430476Y-250360380D02*
X289382857Y-250265142D01*
X289382857Y-250265142D02*
X289382857Y-249979428D01*
X289382857Y-249979428D02*
X289430476Y-249884190D01*
X289430476Y-249884190D02*
X289478095Y-249836571D01*
X289478095Y-249836571D02*
X289573333Y-249788952D01*
X289573333Y-249788952D02*
X289716190Y-249788952D01*
X289716190Y-249788952D02*
X289811428Y-249836571D01*
X289811428Y-249836571D02*
X289859047Y-249884190D01*
X289859047Y-249884190D02*
X289906666Y-249979428D01*
X289906666Y-249979428D02*
X289906666Y-250265142D01*
X289906666Y-250265142D02*
X289859047Y-250360380D01*
X289859047Y-250360380D02*
X289811428Y-250408000D01*
X289811428Y-250408000D02*
X289716190Y-250455619D01*
X289716190Y-250455619D02*
X289573333Y-250455619D01*
X290478095Y-250455619D02*
X290382857Y-250408000D01*
X290382857Y-250408000D02*
X290335238Y-250312761D01*
X290335238Y-250312761D02*
X290335238Y-249455619D01*
X291240000Y-250408000D02*
X291144762Y-250455619D01*
X291144762Y-250455619D02*
X290954286Y-250455619D01*
X290954286Y-250455619D02*
X290859048Y-250408000D01*
X290859048Y-250408000D02*
X290811429Y-250312761D01*
X290811429Y-250312761D02*
X290811429Y-249931809D01*
X290811429Y-249931809D02*
X290859048Y-249836571D01*
X290859048Y-249836571D02*
X290954286Y-249788952D01*
X290954286Y-249788952D02*
X291144762Y-249788952D01*
X291144762Y-249788952D02*
X291240000Y-249836571D01*
X291240000Y-249836571D02*
X291287619Y-249931809D01*
X291287619Y-249931809D02*
X291287619Y-250027047D01*
X291287619Y-250027047D02*
X290811429Y-250122285D01*
X291478096Y-250550857D02*
X292240000Y-250550857D01*
X292478096Y-250455619D02*
X292478096Y-249455619D01*
X292478096Y-249455619D02*
X292859048Y-249455619D01*
X292859048Y-249455619D02*
X292954286Y-249503238D01*
X292954286Y-249503238D02*
X293001905Y-249550857D01*
X293001905Y-249550857D02*
X293049524Y-249646095D01*
X293049524Y-249646095D02*
X293049524Y-249788952D01*
X293049524Y-249788952D02*
X293001905Y-249884190D01*
X293001905Y-249884190D02*
X292954286Y-249931809D01*
X292954286Y-249931809D02*
X292859048Y-249979428D01*
X292859048Y-249979428D02*
X292478096Y-249979428D01*
X293906667Y-250455619D02*
X293906667Y-249931809D01*
X293906667Y-249931809D02*
X293859048Y-249836571D01*
X293859048Y-249836571D02*
X293763810Y-249788952D01*
X293763810Y-249788952D02*
X293573334Y-249788952D01*
X293573334Y-249788952D02*
X293478096Y-249836571D01*
X293906667Y-250408000D02*
X293811429Y-250455619D01*
X293811429Y-250455619D02*
X293573334Y-250455619D01*
X293573334Y-250455619D02*
X293478096Y-250408000D01*
X293478096Y-250408000D02*
X293430477Y-250312761D01*
X293430477Y-250312761D02*
X293430477Y-250217523D01*
X293430477Y-250217523D02*
X293478096Y-250122285D01*
X293478096Y-250122285D02*
X293573334Y-250074666D01*
X293573334Y-250074666D02*
X293811429Y-250074666D01*
X293811429Y-250074666D02*
X293906667Y-250027047D01*
X294811429Y-250455619D02*
X294811429Y-249455619D01*
X294811429Y-250408000D02*
X294716191Y-250455619D01*
X294716191Y-250455619D02*
X294525715Y-250455619D01*
X294525715Y-250455619D02*
X294430477Y-250408000D01*
X294430477Y-250408000D02*
X294382858Y-250360380D01*
X294382858Y-250360380D02*
X294335239Y-250265142D01*
X294335239Y-250265142D02*
X294335239Y-249979428D01*
X294335239Y-249979428D02*
X294382858Y-249884190D01*
X294382858Y-249884190D02*
X294430477Y-249836571D01*
X294430477Y-249836571D02*
X294525715Y-249788952D01*
X294525715Y-249788952D02*
X294716191Y-249788952D01*
X294716191Y-249788952D02*
X294811429Y-249836571D01*
X286097143Y-247255619D02*
X286097143Y-246255619D01*
X286097143Y-246731809D02*
X286668571Y-246731809D01*
X286668571Y-247255619D02*
X286668571Y-246255619D01*
X286906667Y-247350857D02*
X287668571Y-247350857D01*
X288478095Y-247160380D02*
X288430476Y-247208000D01*
X288430476Y-247208000D02*
X288287619Y-247255619D01*
X288287619Y-247255619D02*
X288192381Y-247255619D01*
X288192381Y-247255619D02*
X288049524Y-247208000D01*
X288049524Y-247208000D02*
X287954286Y-247112761D01*
X287954286Y-247112761D02*
X287906667Y-247017523D01*
X287906667Y-247017523D02*
X287859048Y-246827047D01*
X287859048Y-246827047D02*
X287859048Y-246684190D01*
X287859048Y-246684190D02*
X287906667Y-246493714D01*
X287906667Y-246493714D02*
X287954286Y-246398476D01*
X287954286Y-246398476D02*
X288049524Y-246303238D01*
X288049524Y-246303238D02*
X288192381Y-246255619D01*
X288192381Y-246255619D02*
X288287619Y-246255619D01*
X288287619Y-246255619D02*
X288430476Y-246303238D01*
X288430476Y-246303238D02*
X288478095Y-246350857D01*
X289240000Y-246731809D02*
X289382857Y-246779428D01*
X289382857Y-246779428D02*
X289430476Y-246827047D01*
X289430476Y-246827047D02*
X289478095Y-246922285D01*
X289478095Y-246922285D02*
X289478095Y-247065142D01*
X289478095Y-247065142D02*
X289430476Y-247160380D01*
X289430476Y-247160380D02*
X289382857Y-247208000D01*
X289382857Y-247208000D02*
X289287619Y-247255619D01*
X289287619Y-247255619D02*
X288906667Y-247255619D01*
X288906667Y-247255619D02*
X288906667Y-246255619D01*
X288906667Y-246255619D02*
X289240000Y-246255619D01*
X289240000Y-246255619D02*
X289335238Y-246303238D01*
X289335238Y-246303238D02*
X289382857Y-246350857D01*
X289382857Y-246350857D02*
X289430476Y-246446095D01*
X289430476Y-246446095D02*
X289430476Y-246541333D01*
X289430476Y-246541333D02*
X289382857Y-246636571D01*
X289382857Y-246636571D02*
X289335238Y-246684190D01*
X289335238Y-246684190D02*
X289240000Y-246731809D01*
X289240000Y-246731809D02*
X288906667Y-246731809D01*
X290335238Y-246588952D02*
X290335238Y-247255619D01*
X290097143Y-246208000D02*
X289859048Y-246922285D01*
X289859048Y-246922285D02*
X290478095Y-246922285D01*
X325902071Y-250455619D02*
X325902071Y-249455619D01*
X325902071Y-249455619D02*
X326235404Y-250169904D01*
X326235404Y-250169904D02*
X326568737Y-249455619D01*
X326568737Y-249455619D02*
X326568737Y-250455619D01*
X327187785Y-250455619D02*
X327092547Y-250408000D01*
X327092547Y-250408000D02*
X327044928Y-250360380D01*
X327044928Y-250360380D02*
X326997309Y-250265142D01*
X326997309Y-250265142D02*
X326997309Y-249979428D01*
X326997309Y-249979428D02*
X327044928Y-249884190D01*
X327044928Y-249884190D02*
X327092547Y-249836571D01*
X327092547Y-249836571D02*
X327187785Y-249788952D01*
X327187785Y-249788952D02*
X327330642Y-249788952D01*
X327330642Y-249788952D02*
X327425880Y-249836571D01*
X327425880Y-249836571D02*
X327473499Y-249884190D01*
X327473499Y-249884190D02*
X327521118Y-249979428D01*
X327521118Y-249979428D02*
X327521118Y-250265142D01*
X327521118Y-250265142D02*
X327473499Y-250360380D01*
X327473499Y-250360380D02*
X327425880Y-250408000D01*
X327425880Y-250408000D02*
X327330642Y-250455619D01*
X327330642Y-250455619D02*
X327187785Y-250455619D01*
X328378261Y-249788952D02*
X328378261Y-250455619D01*
X327949690Y-249788952D02*
X327949690Y-250312761D01*
X327949690Y-250312761D02*
X327997309Y-250408000D01*
X327997309Y-250408000D02*
X328092547Y-250455619D01*
X328092547Y-250455619D02*
X328235404Y-250455619D01*
X328235404Y-250455619D02*
X328330642Y-250408000D01*
X328330642Y-250408000D02*
X328378261Y-250360380D01*
X328854452Y-249788952D02*
X328854452Y-250455619D01*
X328854452Y-249884190D02*
X328902071Y-249836571D01*
X328902071Y-249836571D02*
X328997309Y-249788952D01*
X328997309Y-249788952D02*
X329140166Y-249788952D01*
X329140166Y-249788952D02*
X329235404Y-249836571D01*
X329235404Y-249836571D02*
X329283023Y-249931809D01*
X329283023Y-249931809D02*
X329283023Y-250455619D01*
X329616357Y-249788952D02*
X329997309Y-249788952D01*
X329759214Y-249455619D02*
X329759214Y-250312761D01*
X329759214Y-250312761D02*
X329806833Y-250408000D01*
X329806833Y-250408000D02*
X329902071Y-250455619D01*
X329902071Y-250455619D02*
X329997309Y-250455619D01*
X330330643Y-250455619D02*
X330330643Y-249788952D01*
X330330643Y-249455619D02*
X330283024Y-249503238D01*
X330283024Y-249503238D02*
X330330643Y-249550857D01*
X330330643Y-249550857D02*
X330378262Y-249503238D01*
X330378262Y-249503238D02*
X330330643Y-249455619D01*
X330330643Y-249455619D02*
X330330643Y-249550857D01*
X330806833Y-249788952D02*
X330806833Y-250455619D01*
X330806833Y-249884190D02*
X330854452Y-249836571D01*
X330854452Y-249836571D02*
X330949690Y-249788952D01*
X330949690Y-249788952D02*
X331092547Y-249788952D01*
X331092547Y-249788952D02*
X331187785Y-249836571D01*
X331187785Y-249836571D02*
X331235404Y-249931809D01*
X331235404Y-249931809D02*
X331235404Y-250455619D01*
X332140166Y-249788952D02*
X332140166Y-250598476D01*
X332140166Y-250598476D02*
X332092547Y-250693714D01*
X332092547Y-250693714D02*
X332044928Y-250741333D01*
X332044928Y-250741333D02*
X331949690Y-250788952D01*
X331949690Y-250788952D02*
X331806833Y-250788952D01*
X331806833Y-250788952D02*
X331711595Y-250741333D01*
X332140166Y-250408000D02*
X332044928Y-250455619D01*
X332044928Y-250455619D02*
X331854452Y-250455619D01*
X331854452Y-250455619D02*
X331759214Y-250408000D01*
X331759214Y-250408000D02*
X331711595Y-250360380D01*
X331711595Y-250360380D02*
X331663976Y-250265142D01*
X331663976Y-250265142D02*
X331663976Y-249979428D01*
X331663976Y-249979428D02*
X331711595Y-249884190D01*
X331711595Y-249884190D02*
X331759214Y-249836571D01*
X331759214Y-249836571D02*
X331854452Y-249788952D01*
X331854452Y-249788952D02*
X332044928Y-249788952D01*
X332044928Y-249788952D02*
X332140166Y-249836571D01*
X332616357Y-250455619D02*
X332616357Y-249455619D01*
X332616357Y-249931809D02*
X333187785Y-249931809D01*
X333187785Y-250455619D02*
X333187785Y-249455619D01*
X333806833Y-250455619D02*
X333711595Y-250408000D01*
X333711595Y-250408000D02*
X333663976Y-250360380D01*
X333663976Y-250360380D02*
X333616357Y-250265142D01*
X333616357Y-250265142D02*
X333616357Y-249979428D01*
X333616357Y-249979428D02*
X333663976Y-249884190D01*
X333663976Y-249884190D02*
X333711595Y-249836571D01*
X333711595Y-249836571D02*
X333806833Y-249788952D01*
X333806833Y-249788952D02*
X333949690Y-249788952D01*
X333949690Y-249788952D02*
X334044928Y-249836571D01*
X334044928Y-249836571D02*
X334092547Y-249884190D01*
X334092547Y-249884190D02*
X334140166Y-249979428D01*
X334140166Y-249979428D02*
X334140166Y-250265142D01*
X334140166Y-250265142D02*
X334092547Y-250360380D01*
X334092547Y-250360380D02*
X334044928Y-250408000D01*
X334044928Y-250408000D02*
X333949690Y-250455619D01*
X333949690Y-250455619D02*
X333806833Y-250455619D01*
X334711595Y-250455619D02*
X334616357Y-250408000D01*
X334616357Y-250408000D02*
X334568738Y-250312761D01*
X334568738Y-250312761D02*
X334568738Y-249455619D01*
X335473500Y-250408000D02*
X335378262Y-250455619D01*
X335378262Y-250455619D02*
X335187786Y-250455619D01*
X335187786Y-250455619D02*
X335092548Y-250408000D01*
X335092548Y-250408000D02*
X335044929Y-250312761D01*
X335044929Y-250312761D02*
X335044929Y-249931809D01*
X335044929Y-249931809D02*
X335092548Y-249836571D01*
X335092548Y-249836571D02*
X335187786Y-249788952D01*
X335187786Y-249788952D02*
X335378262Y-249788952D01*
X335378262Y-249788952D02*
X335473500Y-249836571D01*
X335473500Y-249836571D02*
X335521119Y-249931809D01*
X335521119Y-249931809D02*
X335521119Y-250027047D01*
X335521119Y-250027047D02*
X335044929Y-250122285D01*
X335711596Y-250550857D02*
X336473500Y-250550857D01*
X336711596Y-250455619D02*
X336711596Y-249455619D01*
X336711596Y-249455619D02*
X337092548Y-249455619D01*
X337092548Y-249455619D02*
X337187786Y-249503238D01*
X337187786Y-249503238D02*
X337235405Y-249550857D01*
X337235405Y-249550857D02*
X337283024Y-249646095D01*
X337283024Y-249646095D02*
X337283024Y-249788952D01*
X337283024Y-249788952D02*
X337235405Y-249884190D01*
X337235405Y-249884190D02*
X337187786Y-249931809D01*
X337187786Y-249931809D02*
X337092548Y-249979428D01*
X337092548Y-249979428D02*
X336711596Y-249979428D01*
X338140167Y-250455619D02*
X338140167Y-249931809D01*
X338140167Y-249931809D02*
X338092548Y-249836571D01*
X338092548Y-249836571D02*
X337997310Y-249788952D01*
X337997310Y-249788952D02*
X337806834Y-249788952D01*
X337806834Y-249788952D02*
X337711596Y-249836571D01*
X338140167Y-250408000D02*
X338044929Y-250455619D01*
X338044929Y-250455619D02*
X337806834Y-250455619D01*
X337806834Y-250455619D02*
X337711596Y-250408000D01*
X337711596Y-250408000D02*
X337663977Y-250312761D01*
X337663977Y-250312761D02*
X337663977Y-250217523D01*
X337663977Y-250217523D02*
X337711596Y-250122285D01*
X337711596Y-250122285D02*
X337806834Y-250074666D01*
X337806834Y-250074666D02*
X338044929Y-250074666D01*
X338044929Y-250074666D02*
X338140167Y-250027047D01*
X339044929Y-250455619D02*
X339044929Y-249455619D01*
X339044929Y-250408000D02*
X338949691Y-250455619D01*
X338949691Y-250455619D02*
X338759215Y-250455619D01*
X338759215Y-250455619D02*
X338663977Y-250408000D01*
X338663977Y-250408000D02*
X338616358Y-250360380D01*
X338616358Y-250360380D02*
X338568739Y-250265142D01*
X338568739Y-250265142D02*
X338568739Y-249979428D01*
X338568739Y-249979428D02*
X338616358Y-249884190D01*
X338616358Y-249884190D02*
X338663977Y-249836571D01*
X338663977Y-249836571D02*
X338759215Y-249788952D01*
X338759215Y-249788952D02*
X338949691Y-249788952D01*
X338949691Y-249788952D02*
X339044929Y-249836571D01*
X330330643Y-247255619D02*
X330330643Y-246255619D01*
X330330643Y-246731809D02*
X330902071Y-246731809D01*
X330902071Y-247255619D02*
X330902071Y-246255619D01*
X331140167Y-247350857D02*
X331902071Y-247350857D01*
X332711595Y-247160380D02*
X332663976Y-247208000D01*
X332663976Y-247208000D02*
X332521119Y-247255619D01*
X332521119Y-247255619D02*
X332425881Y-247255619D01*
X332425881Y-247255619D02*
X332283024Y-247208000D01*
X332283024Y-247208000D02*
X332187786Y-247112761D01*
X332187786Y-247112761D02*
X332140167Y-247017523D01*
X332140167Y-247017523D02*
X332092548Y-246827047D01*
X332092548Y-246827047D02*
X332092548Y-246684190D01*
X332092548Y-246684190D02*
X332140167Y-246493714D01*
X332140167Y-246493714D02*
X332187786Y-246398476D01*
X332187786Y-246398476D02*
X332283024Y-246303238D01*
X332283024Y-246303238D02*
X332425881Y-246255619D01*
X332425881Y-246255619D02*
X332521119Y-246255619D01*
X332521119Y-246255619D02*
X332663976Y-246303238D01*
X332663976Y-246303238D02*
X332711595Y-246350857D01*
X333473500Y-246731809D02*
X333616357Y-246779428D01*
X333616357Y-246779428D02*
X333663976Y-246827047D01*
X333663976Y-246827047D02*
X333711595Y-246922285D01*
X333711595Y-246922285D02*
X333711595Y-247065142D01*
X333711595Y-247065142D02*
X333663976Y-247160380D01*
X333663976Y-247160380D02*
X333616357Y-247208000D01*
X333616357Y-247208000D02*
X333521119Y-247255619D01*
X333521119Y-247255619D02*
X333140167Y-247255619D01*
X333140167Y-247255619D02*
X333140167Y-246255619D01*
X333140167Y-246255619D02*
X333473500Y-246255619D01*
X333473500Y-246255619D02*
X333568738Y-246303238D01*
X333568738Y-246303238D02*
X333616357Y-246350857D01*
X333616357Y-246350857D02*
X333663976Y-246446095D01*
X333663976Y-246446095D02*
X333663976Y-246541333D01*
X333663976Y-246541333D02*
X333616357Y-246636571D01*
X333616357Y-246636571D02*
X333568738Y-246684190D01*
X333568738Y-246684190D02*
X333473500Y-246731809D01*
X333473500Y-246731809D02*
X333140167Y-246731809D01*
X334044929Y-246255619D02*
X334663976Y-246255619D01*
X334663976Y-246255619D02*
X334330643Y-246636571D01*
X334330643Y-246636571D02*
X334473500Y-246636571D01*
X334473500Y-246636571D02*
X334568738Y-246684190D01*
X334568738Y-246684190D02*
X334616357Y-246731809D01*
X334616357Y-246731809D02*
X334663976Y-246827047D01*
X334663976Y-246827047D02*
X334663976Y-247065142D01*
X334663976Y-247065142D02*
X334616357Y-247160380D01*
X334616357Y-247160380D02*
X334568738Y-247208000D01*
X334568738Y-247208000D02*
X334473500Y-247255619D01*
X334473500Y-247255619D02*
X334187786Y-247255619D01*
X334187786Y-247255619D02*
X334092548Y-247208000D01*
X334092548Y-247208000D02*
X334044929Y-247160380D01*
X325902071Y-183907619D02*
X325902071Y-182907619D01*
X325902071Y-182907619D02*
X326235404Y-183621904D01*
X326235404Y-183621904D02*
X326568737Y-182907619D01*
X326568737Y-182907619D02*
X326568737Y-183907619D01*
X327187785Y-183907619D02*
X327092547Y-183860000D01*
X327092547Y-183860000D02*
X327044928Y-183812380D01*
X327044928Y-183812380D02*
X326997309Y-183717142D01*
X326997309Y-183717142D02*
X326997309Y-183431428D01*
X326997309Y-183431428D02*
X327044928Y-183336190D01*
X327044928Y-183336190D02*
X327092547Y-183288571D01*
X327092547Y-183288571D02*
X327187785Y-183240952D01*
X327187785Y-183240952D02*
X327330642Y-183240952D01*
X327330642Y-183240952D02*
X327425880Y-183288571D01*
X327425880Y-183288571D02*
X327473499Y-183336190D01*
X327473499Y-183336190D02*
X327521118Y-183431428D01*
X327521118Y-183431428D02*
X327521118Y-183717142D01*
X327521118Y-183717142D02*
X327473499Y-183812380D01*
X327473499Y-183812380D02*
X327425880Y-183860000D01*
X327425880Y-183860000D02*
X327330642Y-183907619D01*
X327330642Y-183907619D02*
X327187785Y-183907619D01*
X328378261Y-183240952D02*
X328378261Y-183907619D01*
X327949690Y-183240952D02*
X327949690Y-183764761D01*
X327949690Y-183764761D02*
X327997309Y-183860000D01*
X327997309Y-183860000D02*
X328092547Y-183907619D01*
X328092547Y-183907619D02*
X328235404Y-183907619D01*
X328235404Y-183907619D02*
X328330642Y-183860000D01*
X328330642Y-183860000D02*
X328378261Y-183812380D01*
X328854452Y-183240952D02*
X328854452Y-183907619D01*
X328854452Y-183336190D02*
X328902071Y-183288571D01*
X328902071Y-183288571D02*
X328997309Y-183240952D01*
X328997309Y-183240952D02*
X329140166Y-183240952D01*
X329140166Y-183240952D02*
X329235404Y-183288571D01*
X329235404Y-183288571D02*
X329283023Y-183383809D01*
X329283023Y-183383809D02*
X329283023Y-183907619D01*
X329616357Y-183240952D02*
X329997309Y-183240952D01*
X329759214Y-182907619D02*
X329759214Y-183764761D01*
X329759214Y-183764761D02*
X329806833Y-183860000D01*
X329806833Y-183860000D02*
X329902071Y-183907619D01*
X329902071Y-183907619D02*
X329997309Y-183907619D01*
X330330643Y-183907619D02*
X330330643Y-183240952D01*
X330330643Y-182907619D02*
X330283024Y-182955238D01*
X330283024Y-182955238D02*
X330330643Y-183002857D01*
X330330643Y-183002857D02*
X330378262Y-182955238D01*
X330378262Y-182955238D02*
X330330643Y-182907619D01*
X330330643Y-182907619D02*
X330330643Y-183002857D01*
X330806833Y-183240952D02*
X330806833Y-183907619D01*
X330806833Y-183336190D02*
X330854452Y-183288571D01*
X330854452Y-183288571D02*
X330949690Y-183240952D01*
X330949690Y-183240952D02*
X331092547Y-183240952D01*
X331092547Y-183240952D02*
X331187785Y-183288571D01*
X331187785Y-183288571D02*
X331235404Y-183383809D01*
X331235404Y-183383809D02*
X331235404Y-183907619D01*
X332140166Y-183240952D02*
X332140166Y-184050476D01*
X332140166Y-184050476D02*
X332092547Y-184145714D01*
X332092547Y-184145714D02*
X332044928Y-184193333D01*
X332044928Y-184193333D02*
X331949690Y-184240952D01*
X331949690Y-184240952D02*
X331806833Y-184240952D01*
X331806833Y-184240952D02*
X331711595Y-184193333D01*
X332140166Y-183860000D02*
X332044928Y-183907619D01*
X332044928Y-183907619D02*
X331854452Y-183907619D01*
X331854452Y-183907619D02*
X331759214Y-183860000D01*
X331759214Y-183860000D02*
X331711595Y-183812380D01*
X331711595Y-183812380D02*
X331663976Y-183717142D01*
X331663976Y-183717142D02*
X331663976Y-183431428D01*
X331663976Y-183431428D02*
X331711595Y-183336190D01*
X331711595Y-183336190D02*
X331759214Y-183288571D01*
X331759214Y-183288571D02*
X331854452Y-183240952D01*
X331854452Y-183240952D02*
X332044928Y-183240952D01*
X332044928Y-183240952D02*
X332140166Y-183288571D01*
X332616357Y-183907619D02*
X332616357Y-182907619D01*
X332616357Y-183383809D02*
X333187785Y-183383809D01*
X333187785Y-183907619D02*
X333187785Y-182907619D01*
X333806833Y-183907619D02*
X333711595Y-183860000D01*
X333711595Y-183860000D02*
X333663976Y-183812380D01*
X333663976Y-183812380D02*
X333616357Y-183717142D01*
X333616357Y-183717142D02*
X333616357Y-183431428D01*
X333616357Y-183431428D02*
X333663976Y-183336190D01*
X333663976Y-183336190D02*
X333711595Y-183288571D01*
X333711595Y-183288571D02*
X333806833Y-183240952D01*
X333806833Y-183240952D02*
X333949690Y-183240952D01*
X333949690Y-183240952D02*
X334044928Y-183288571D01*
X334044928Y-183288571D02*
X334092547Y-183336190D01*
X334092547Y-183336190D02*
X334140166Y-183431428D01*
X334140166Y-183431428D02*
X334140166Y-183717142D01*
X334140166Y-183717142D02*
X334092547Y-183812380D01*
X334092547Y-183812380D02*
X334044928Y-183860000D01*
X334044928Y-183860000D02*
X333949690Y-183907619D01*
X333949690Y-183907619D02*
X333806833Y-183907619D01*
X334711595Y-183907619D02*
X334616357Y-183860000D01*
X334616357Y-183860000D02*
X334568738Y-183764761D01*
X334568738Y-183764761D02*
X334568738Y-182907619D01*
X335473500Y-183860000D02*
X335378262Y-183907619D01*
X335378262Y-183907619D02*
X335187786Y-183907619D01*
X335187786Y-183907619D02*
X335092548Y-183860000D01*
X335092548Y-183860000D02*
X335044929Y-183764761D01*
X335044929Y-183764761D02*
X335044929Y-183383809D01*
X335044929Y-183383809D02*
X335092548Y-183288571D01*
X335092548Y-183288571D02*
X335187786Y-183240952D01*
X335187786Y-183240952D02*
X335378262Y-183240952D01*
X335378262Y-183240952D02*
X335473500Y-183288571D01*
X335473500Y-183288571D02*
X335521119Y-183383809D01*
X335521119Y-183383809D02*
X335521119Y-183479047D01*
X335521119Y-183479047D02*
X335044929Y-183574285D01*
X335711596Y-184002857D02*
X336473500Y-184002857D01*
X336711596Y-183907619D02*
X336711596Y-182907619D01*
X336711596Y-182907619D02*
X337092548Y-182907619D01*
X337092548Y-182907619D02*
X337187786Y-182955238D01*
X337187786Y-182955238D02*
X337235405Y-183002857D01*
X337235405Y-183002857D02*
X337283024Y-183098095D01*
X337283024Y-183098095D02*
X337283024Y-183240952D01*
X337283024Y-183240952D02*
X337235405Y-183336190D01*
X337235405Y-183336190D02*
X337187786Y-183383809D01*
X337187786Y-183383809D02*
X337092548Y-183431428D01*
X337092548Y-183431428D02*
X336711596Y-183431428D01*
X338140167Y-183907619D02*
X338140167Y-183383809D01*
X338140167Y-183383809D02*
X338092548Y-183288571D01*
X338092548Y-183288571D02*
X337997310Y-183240952D01*
X337997310Y-183240952D02*
X337806834Y-183240952D01*
X337806834Y-183240952D02*
X337711596Y-183288571D01*
X338140167Y-183860000D02*
X338044929Y-183907619D01*
X338044929Y-183907619D02*
X337806834Y-183907619D01*
X337806834Y-183907619D02*
X337711596Y-183860000D01*
X337711596Y-183860000D02*
X337663977Y-183764761D01*
X337663977Y-183764761D02*
X337663977Y-183669523D01*
X337663977Y-183669523D02*
X337711596Y-183574285D01*
X337711596Y-183574285D02*
X337806834Y-183526666D01*
X337806834Y-183526666D02*
X338044929Y-183526666D01*
X338044929Y-183526666D02*
X338140167Y-183479047D01*
X339044929Y-183907619D02*
X339044929Y-182907619D01*
X339044929Y-183860000D02*
X338949691Y-183907619D01*
X338949691Y-183907619D02*
X338759215Y-183907619D01*
X338759215Y-183907619D02*
X338663977Y-183860000D01*
X338663977Y-183860000D02*
X338616358Y-183812380D01*
X338616358Y-183812380D02*
X338568739Y-183717142D01*
X338568739Y-183717142D02*
X338568739Y-183431428D01*
X338568739Y-183431428D02*
X338616358Y-183336190D01*
X338616358Y-183336190D02*
X338663977Y-183288571D01*
X338663977Y-183288571D02*
X338759215Y-183240952D01*
X338759215Y-183240952D02*
X338949691Y-183240952D01*
X338949691Y-183240952D02*
X339044929Y-183288571D01*
X330330643Y-180707619D02*
X330330643Y-179707619D01*
X330330643Y-180183809D02*
X330902071Y-180183809D01*
X330902071Y-180707619D02*
X330902071Y-179707619D01*
X331140167Y-180802857D02*
X331902071Y-180802857D01*
X332711595Y-180612380D02*
X332663976Y-180660000D01*
X332663976Y-180660000D02*
X332521119Y-180707619D01*
X332521119Y-180707619D02*
X332425881Y-180707619D01*
X332425881Y-180707619D02*
X332283024Y-180660000D01*
X332283024Y-180660000D02*
X332187786Y-180564761D01*
X332187786Y-180564761D02*
X332140167Y-180469523D01*
X332140167Y-180469523D02*
X332092548Y-180279047D01*
X332092548Y-180279047D02*
X332092548Y-180136190D01*
X332092548Y-180136190D02*
X332140167Y-179945714D01*
X332140167Y-179945714D02*
X332187786Y-179850476D01*
X332187786Y-179850476D02*
X332283024Y-179755238D01*
X332283024Y-179755238D02*
X332425881Y-179707619D01*
X332425881Y-179707619D02*
X332521119Y-179707619D01*
X332521119Y-179707619D02*
X332663976Y-179755238D01*
X332663976Y-179755238D02*
X332711595Y-179802857D01*
X333473500Y-180183809D02*
X333616357Y-180231428D01*
X333616357Y-180231428D02*
X333663976Y-180279047D01*
X333663976Y-180279047D02*
X333711595Y-180374285D01*
X333711595Y-180374285D02*
X333711595Y-180517142D01*
X333711595Y-180517142D02*
X333663976Y-180612380D01*
X333663976Y-180612380D02*
X333616357Y-180660000D01*
X333616357Y-180660000D02*
X333521119Y-180707619D01*
X333521119Y-180707619D02*
X333140167Y-180707619D01*
X333140167Y-180707619D02*
X333140167Y-179707619D01*
X333140167Y-179707619D02*
X333473500Y-179707619D01*
X333473500Y-179707619D02*
X333568738Y-179755238D01*
X333568738Y-179755238D02*
X333616357Y-179802857D01*
X333616357Y-179802857D02*
X333663976Y-179898095D01*
X333663976Y-179898095D02*
X333663976Y-179993333D01*
X333663976Y-179993333D02*
X333616357Y-180088571D01*
X333616357Y-180088571D02*
X333568738Y-180136190D01*
X333568738Y-180136190D02*
X333473500Y-180183809D01*
X333473500Y-180183809D02*
X333140167Y-180183809D01*
X334092548Y-179802857D02*
X334140167Y-179755238D01*
X334140167Y-179755238D02*
X334235405Y-179707619D01*
X334235405Y-179707619D02*
X334473500Y-179707619D01*
X334473500Y-179707619D02*
X334568738Y-179755238D01*
X334568738Y-179755238D02*
X334616357Y-179802857D01*
X334616357Y-179802857D02*
X334663976Y-179898095D01*
X334663976Y-179898095D02*
X334663976Y-179993333D01*
X334663976Y-179993333D02*
X334616357Y-180136190D01*
X334616357Y-180136190D02*
X334044929Y-180707619D01*
X334044929Y-180707619D02*
X334663976Y-180707619D01*
X281668571Y-183907619D02*
X281668571Y-182907619D01*
X281668571Y-182907619D02*
X282001904Y-183621904D01*
X282001904Y-183621904D02*
X282335237Y-182907619D01*
X282335237Y-182907619D02*
X282335237Y-183907619D01*
X282954285Y-183907619D02*
X282859047Y-183860000D01*
X282859047Y-183860000D02*
X282811428Y-183812380D01*
X282811428Y-183812380D02*
X282763809Y-183717142D01*
X282763809Y-183717142D02*
X282763809Y-183431428D01*
X282763809Y-183431428D02*
X282811428Y-183336190D01*
X282811428Y-183336190D02*
X282859047Y-183288571D01*
X282859047Y-183288571D02*
X282954285Y-183240952D01*
X282954285Y-183240952D02*
X283097142Y-183240952D01*
X283097142Y-183240952D02*
X283192380Y-183288571D01*
X283192380Y-183288571D02*
X283239999Y-183336190D01*
X283239999Y-183336190D02*
X283287618Y-183431428D01*
X283287618Y-183431428D02*
X283287618Y-183717142D01*
X283287618Y-183717142D02*
X283239999Y-183812380D01*
X283239999Y-183812380D02*
X283192380Y-183860000D01*
X283192380Y-183860000D02*
X283097142Y-183907619D01*
X283097142Y-183907619D02*
X282954285Y-183907619D01*
X284144761Y-183240952D02*
X284144761Y-183907619D01*
X283716190Y-183240952D02*
X283716190Y-183764761D01*
X283716190Y-183764761D02*
X283763809Y-183860000D01*
X283763809Y-183860000D02*
X283859047Y-183907619D01*
X283859047Y-183907619D02*
X284001904Y-183907619D01*
X284001904Y-183907619D02*
X284097142Y-183860000D01*
X284097142Y-183860000D02*
X284144761Y-183812380D01*
X284620952Y-183240952D02*
X284620952Y-183907619D01*
X284620952Y-183336190D02*
X284668571Y-183288571D01*
X284668571Y-183288571D02*
X284763809Y-183240952D01*
X284763809Y-183240952D02*
X284906666Y-183240952D01*
X284906666Y-183240952D02*
X285001904Y-183288571D01*
X285001904Y-183288571D02*
X285049523Y-183383809D01*
X285049523Y-183383809D02*
X285049523Y-183907619D01*
X285382857Y-183240952D02*
X285763809Y-183240952D01*
X285525714Y-182907619D02*
X285525714Y-183764761D01*
X285525714Y-183764761D02*
X285573333Y-183860000D01*
X285573333Y-183860000D02*
X285668571Y-183907619D01*
X285668571Y-183907619D02*
X285763809Y-183907619D01*
X286097143Y-183907619D02*
X286097143Y-183240952D01*
X286097143Y-182907619D02*
X286049524Y-182955238D01*
X286049524Y-182955238D02*
X286097143Y-183002857D01*
X286097143Y-183002857D02*
X286144762Y-182955238D01*
X286144762Y-182955238D02*
X286097143Y-182907619D01*
X286097143Y-182907619D02*
X286097143Y-183002857D01*
X286573333Y-183240952D02*
X286573333Y-183907619D01*
X286573333Y-183336190D02*
X286620952Y-183288571D01*
X286620952Y-183288571D02*
X286716190Y-183240952D01*
X286716190Y-183240952D02*
X286859047Y-183240952D01*
X286859047Y-183240952D02*
X286954285Y-183288571D01*
X286954285Y-183288571D02*
X287001904Y-183383809D01*
X287001904Y-183383809D02*
X287001904Y-183907619D01*
X287906666Y-183240952D02*
X287906666Y-184050476D01*
X287906666Y-184050476D02*
X287859047Y-184145714D01*
X287859047Y-184145714D02*
X287811428Y-184193333D01*
X287811428Y-184193333D02*
X287716190Y-184240952D01*
X287716190Y-184240952D02*
X287573333Y-184240952D01*
X287573333Y-184240952D02*
X287478095Y-184193333D01*
X287906666Y-183860000D02*
X287811428Y-183907619D01*
X287811428Y-183907619D02*
X287620952Y-183907619D01*
X287620952Y-183907619D02*
X287525714Y-183860000D01*
X287525714Y-183860000D02*
X287478095Y-183812380D01*
X287478095Y-183812380D02*
X287430476Y-183717142D01*
X287430476Y-183717142D02*
X287430476Y-183431428D01*
X287430476Y-183431428D02*
X287478095Y-183336190D01*
X287478095Y-183336190D02*
X287525714Y-183288571D01*
X287525714Y-183288571D02*
X287620952Y-183240952D01*
X287620952Y-183240952D02*
X287811428Y-183240952D01*
X287811428Y-183240952D02*
X287906666Y-183288571D01*
X288382857Y-183907619D02*
X288382857Y-182907619D01*
X288382857Y-183383809D02*
X288954285Y-183383809D01*
X288954285Y-183907619D02*
X288954285Y-182907619D01*
X289573333Y-183907619D02*
X289478095Y-183860000D01*
X289478095Y-183860000D02*
X289430476Y-183812380D01*
X289430476Y-183812380D02*
X289382857Y-183717142D01*
X289382857Y-183717142D02*
X289382857Y-183431428D01*
X289382857Y-183431428D02*
X289430476Y-183336190D01*
X289430476Y-183336190D02*
X289478095Y-183288571D01*
X289478095Y-183288571D02*
X289573333Y-183240952D01*
X289573333Y-183240952D02*
X289716190Y-183240952D01*
X289716190Y-183240952D02*
X289811428Y-183288571D01*
X289811428Y-183288571D02*
X289859047Y-183336190D01*
X289859047Y-183336190D02*
X289906666Y-183431428D01*
X289906666Y-183431428D02*
X289906666Y-183717142D01*
X289906666Y-183717142D02*
X289859047Y-183812380D01*
X289859047Y-183812380D02*
X289811428Y-183860000D01*
X289811428Y-183860000D02*
X289716190Y-183907619D01*
X289716190Y-183907619D02*
X289573333Y-183907619D01*
X290478095Y-183907619D02*
X290382857Y-183860000D01*
X290382857Y-183860000D02*
X290335238Y-183764761D01*
X290335238Y-183764761D02*
X290335238Y-182907619D01*
X291240000Y-183860000D02*
X291144762Y-183907619D01*
X291144762Y-183907619D02*
X290954286Y-183907619D01*
X290954286Y-183907619D02*
X290859048Y-183860000D01*
X290859048Y-183860000D02*
X290811429Y-183764761D01*
X290811429Y-183764761D02*
X290811429Y-183383809D01*
X290811429Y-183383809D02*
X290859048Y-183288571D01*
X290859048Y-183288571D02*
X290954286Y-183240952D01*
X290954286Y-183240952D02*
X291144762Y-183240952D01*
X291144762Y-183240952D02*
X291240000Y-183288571D01*
X291240000Y-183288571D02*
X291287619Y-183383809D01*
X291287619Y-183383809D02*
X291287619Y-183479047D01*
X291287619Y-183479047D02*
X290811429Y-183574285D01*
X291478096Y-184002857D02*
X292240000Y-184002857D01*
X292478096Y-183907619D02*
X292478096Y-182907619D01*
X292478096Y-182907619D02*
X292859048Y-182907619D01*
X292859048Y-182907619D02*
X292954286Y-182955238D01*
X292954286Y-182955238D02*
X293001905Y-183002857D01*
X293001905Y-183002857D02*
X293049524Y-183098095D01*
X293049524Y-183098095D02*
X293049524Y-183240952D01*
X293049524Y-183240952D02*
X293001905Y-183336190D01*
X293001905Y-183336190D02*
X292954286Y-183383809D01*
X292954286Y-183383809D02*
X292859048Y-183431428D01*
X292859048Y-183431428D02*
X292478096Y-183431428D01*
X293906667Y-183907619D02*
X293906667Y-183383809D01*
X293906667Y-183383809D02*
X293859048Y-183288571D01*
X293859048Y-183288571D02*
X293763810Y-183240952D01*
X293763810Y-183240952D02*
X293573334Y-183240952D01*
X293573334Y-183240952D02*
X293478096Y-183288571D01*
X293906667Y-183860000D02*
X293811429Y-183907619D01*
X293811429Y-183907619D02*
X293573334Y-183907619D01*
X293573334Y-183907619D02*
X293478096Y-183860000D01*
X293478096Y-183860000D02*
X293430477Y-183764761D01*
X293430477Y-183764761D02*
X293430477Y-183669523D01*
X293430477Y-183669523D02*
X293478096Y-183574285D01*
X293478096Y-183574285D02*
X293573334Y-183526666D01*
X293573334Y-183526666D02*
X293811429Y-183526666D01*
X293811429Y-183526666D02*
X293906667Y-183479047D01*
X294811429Y-183907619D02*
X294811429Y-182907619D01*
X294811429Y-183860000D02*
X294716191Y-183907619D01*
X294716191Y-183907619D02*
X294525715Y-183907619D01*
X294525715Y-183907619D02*
X294430477Y-183860000D01*
X294430477Y-183860000D02*
X294382858Y-183812380D01*
X294382858Y-183812380D02*
X294335239Y-183717142D01*
X294335239Y-183717142D02*
X294335239Y-183431428D01*
X294335239Y-183431428D02*
X294382858Y-183336190D01*
X294382858Y-183336190D02*
X294430477Y-183288571D01*
X294430477Y-183288571D02*
X294525715Y-183240952D01*
X294525715Y-183240952D02*
X294716191Y-183240952D01*
X294716191Y-183240952D02*
X294811429Y-183288571D01*
X286097143Y-180707619D02*
X286097143Y-179707619D01*
X286097143Y-180183809D02*
X286668571Y-180183809D01*
X286668571Y-180707619D02*
X286668571Y-179707619D01*
X286906667Y-180802857D02*
X287668571Y-180802857D01*
X288478095Y-180612380D02*
X288430476Y-180660000D01*
X288430476Y-180660000D02*
X288287619Y-180707619D01*
X288287619Y-180707619D02*
X288192381Y-180707619D01*
X288192381Y-180707619D02*
X288049524Y-180660000D01*
X288049524Y-180660000D02*
X287954286Y-180564761D01*
X287954286Y-180564761D02*
X287906667Y-180469523D01*
X287906667Y-180469523D02*
X287859048Y-180279047D01*
X287859048Y-180279047D02*
X287859048Y-180136190D01*
X287859048Y-180136190D02*
X287906667Y-179945714D01*
X287906667Y-179945714D02*
X287954286Y-179850476D01*
X287954286Y-179850476D02*
X288049524Y-179755238D01*
X288049524Y-179755238D02*
X288192381Y-179707619D01*
X288192381Y-179707619D02*
X288287619Y-179707619D01*
X288287619Y-179707619D02*
X288430476Y-179755238D01*
X288430476Y-179755238D02*
X288478095Y-179802857D01*
X289240000Y-180183809D02*
X289382857Y-180231428D01*
X289382857Y-180231428D02*
X289430476Y-180279047D01*
X289430476Y-180279047D02*
X289478095Y-180374285D01*
X289478095Y-180374285D02*
X289478095Y-180517142D01*
X289478095Y-180517142D02*
X289430476Y-180612380D01*
X289430476Y-180612380D02*
X289382857Y-180660000D01*
X289382857Y-180660000D02*
X289287619Y-180707619D01*
X289287619Y-180707619D02*
X288906667Y-180707619D01*
X288906667Y-180707619D02*
X288906667Y-179707619D01*
X288906667Y-179707619D02*
X289240000Y-179707619D01*
X289240000Y-179707619D02*
X289335238Y-179755238D01*
X289335238Y-179755238D02*
X289382857Y-179802857D01*
X289382857Y-179802857D02*
X289430476Y-179898095D01*
X289430476Y-179898095D02*
X289430476Y-179993333D01*
X289430476Y-179993333D02*
X289382857Y-180088571D01*
X289382857Y-180088571D02*
X289335238Y-180136190D01*
X289335238Y-180136190D02*
X289240000Y-180183809D01*
X289240000Y-180183809D02*
X288906667Y-180183809D01*
X290430476Y-180707619D02*
X289859048Y-180707619D01*
X290144762Y-180707619D02*
X290144762Y-179707619D01*
X290144762Y-179707619D02*
X290049524Y-179850476D01*
X290049524Y-179850476D02*
X289954286Y-179945714D01*
X289954286Y-179945714D02*
X289859048Y-179993333D01*
X415490500Y-191358285D02*
X415538119Y-191215428D01*
X415538119Y-191215428D02*
X415538119Y-190977333D01*
X415538119Y-190977333D02*
X415490500Y-190882095D01*
X415490500Y-190882095D02*
X415442880Y-190834476D01*
X415442880Y-190834476D02*
X415347642Y-190786857D01*
X415347642Y-190786857D02*
X415252404Y-190786857D01*
X415252404Y-190786857D02*
X415157166Y-190834476D01*
X415157166Y-190834476D02*
X415109547Y-190882095D01*
X415109547Y-190882095D02*
X415061928Y-190977333D01*
X415061928Y-190977333D02*
X415014309Y-191167809D01*
X415014309Y-191167809D02*
X414966690Y-191263047D01*
X414966690Y-191263047D02*
X414919071Y-191310666D01*
X414919071Y-191310666D02*
X414823833Y-191358285D01*
X414823833Y-191358285D02*
X414728595Y-191358285D01*
X414728595Y-191358285D02*
X414633357Y-191310666D01*
X414633357Y-191310666D02*
X414585738Y-191263047D01*
X414585738Y-191263047D02*
X414538119Y-191167809D01*
X414538119Y-191167809D02*
X414538119Y-190929714D01*
X414538119Y-190929714D02*
X414585738Y-190786857D01*
X414538119Y-190453523D02*
X415538119Y-190215428D01*
X415538119Y-190215428D02*
X414823833Y-190024952D01*
X414823833Y-190024952D02*
X415538119Y-189834476D01*
X415538119Y-189834476D02*
X414538119Y-189596381D01*
X415633357Y-189453524D02*
X415633357Y-188691619D01*
X415538119Y-187929714D02*
X415538119Y-188501142D01*
X415538119Y-188215428D02*
X414538119Y-188215428D01*
X414538119Y-188215428D02*
X414680976Y-188310666D01*
X414680976Y-188310666D02*
X414776214Y-188405904D01*
X414776214Y-188405904D02*
X414823833Y-188501142D01*
X430638119Y-192658287D02*
X430161928Y-192991620D01*
X430638119Y-193229715D02*
X429638119Y-193229715D01*
X429638119Y-193229715D02*
X429638119Y-192848763D01*
X429638119Y-192848763D02*
X429685738Y-192753525D01*
X429685738Y-192753525D02*
X429733357Y-192705906D01*
X429733357Y-192705906D02*
X429828595Y-192658287D01*
X429828595Y-192658287D02*
X429971452Y-192658287D01*
X429971452Y-192658287D02*
X430066690Y-192705906D01*
X430066690Y-192705906D02*
X430114309Y-192753525D01*
X430114309Y-192753525D02*
X430161928Y-192848763D01*
X430161928Y-192848763D02*
X430161928Y-193229715D01*
X430638119Y-192086858D02*
X430590500Y-192182096D01*
X430590500Y-192182096D02*
X430542880Y-192229715D01*
X430542880Y-192229715D02*
X430447642Y-192277334D01*
X430447642Y-192277334D02*
X430161928Y-192277334D01*
X430161928Y-192277334D02*
X430066690Y-192229715D01*
X430066690Y-192229715D02*
X430019071Y-192182096D01*
X430019071Y-192182096D02*
X429971452Y-192086858D01*
X429971452Y-192086858D02*
X429971452Y-191944001D01*
X429971452Y-191944001D02*
X430019071Y-191848763D01*
X430019071Y-191848763D02*
X430066690Y-191801144D01*
X430066690Y-191801144D02*
X430161928Y-191753525D01*
X430161928Y-191753525D02*
X430447642Y-191753525D01*
X430447642Y-191753525D02*
X430542880Y-191801144D01*
X430542880Y-191801144D02*
X430590500Y-191848763D01*
X430590500Y-191848763D02*
X430638119Y-191944001D01*
X430638119Y-191944001D02*
X430638119Y-192086858D01*
X429971452Y-191467810D02*
X429971452Y-191086858D01*
X429638119Y-191324953D02*
X430495261Y-191324953D01*
X430495261Y-191324953D02*
X430590500Y-191277334D01*
X430590500Y-191277334D02*
X430638119Y-191182096D01*
X430638119Y-191182096D02*
X430638119Y-191086858D01*
X430638119Y-190324953D02*
X430114309Y-190324953D01*
X430114309Y-190324953D02*
X430019071Y-190372572D01*
X430019071Y-190372572D02*
X429971452Y-190467810D01*
X429971452Y-190467810D02*
X429971452Y-190658286D01*
X429971452Y-190658286D02*
X430019071Y-190753524D01*
X430590500Y-190324953D02*
X430638119Y-190420191D01*
X430638119Y-190420191D02*
X430638119Y-190658286D01*
X430638119Y-190658286D02*
X430590500Y-190753524D01*
X430590500Y-190753524D02*
X430495261Y-190801143D01*
X430495261Y-190801143D02*
X430400023Y-190801143D01*
X430400023Y-190801143D02*
X430304785Y-190753524D01*
X430304785Y-190753524D02*
X430257166Y-190658286D01*
X430257166Y-190658286D02*
X430257166Y-190420191D01*
X430257166Y-190420191D02*
X430209547Y-190324953D01*
X430638119Y-189848762D02*
X429971452Y-189848762D01*
X430161928Y-189848762D02*
X430066690Y-189801143D01*
X430066690Y-189801143D02*
X430019071Y-189753524D01*
X430019071Y-189753524D02*
X429971452Y-189658286D01*
X429971452Y-189658286D02*
X429971452Y-189563048D01*
X429971452Y-189324952D02*
X430638119Y-189086857D01*
X429971452Y-188848762D02*
X430638119Y-189086857D01*
X430638119Y-189086857D02*
X430876214Y-189182095D01*
X430876214Y-189182095D02*
X430923833Y-189229714D01*
X430923833Y-189229714D02*
X430971452Y-189324952D01*
X430733357Y-188705905D02*
X430733357Y-187944000D01*
X430114309Y-187705904D02*
X430114309Y-187372571D01*
X430638119Y-187229714D02*
X430638119Y-187705904D01*
X430638119Y-187705904D02*
X429638119Y-187705904D01*
X429638119Y-187705904D02*
X429638119Y-187229714D01*
X429971452Y-186801142D02*
X430638119Y-186801142D01*
X430066690Y-186801142D02*
X430019071Y-186753523D01*
X430019071Y-186753523D02*
X429971452Y-186658285D01*
X429971452Y-186658285D02*
X429971452Y-186515428D01*
X429971452Y-186515428D02*
X430019071Y-186420190D01*
X430019071Y-186420190D02*
X430114309Y-186372571D01*
X430114309Y-186372571D02*
X430638119Y-186372571D01*
X430590500Y-185467809D02*
X430638119Y-185563047D01*
X430638119Y-185563047D02*
X430638119Y-185753523D01*
X430638119Y-185753523D02*
X430590500Y-185848761D01*
X430590500Y-185848761D02*
X430542880Y-185896380D01*
X430542880Y-185896380D02*
X430447642Y-185943999D01*
X430447642Y-185943999D02*
X430161928Y-185943999D01*
X430161928Y-185943999D02*
X430066690Y-185896380D01*
X430066690Y-185896380D02*
X430019071Y-185848761D01*
X430019071Y-185848761D02*
X429971452Y-185753523D01*
X429971452Y-185753523D02*
X429971452Y-185563047D01*
X429971452Y-185563047D02*
X430019071Y-185467809D01*
X430638119Y-184896380D02*
X430590500Y-184991618D01*
X430590500Y-184991618D02*
X430542880Y-185039237D01*
X430542880Y-185039237D02*
X430447642Y-185086856D01*
X430447642Y-185086856D02*
X430161928Y-185086856D01*
X430161928Y-185086856D02*
X430066690Y-185039237D01*
X430066690Y-185039237D02*
X430019071Y-184991618D01*
X430019071Y-184991618D02*
X429971452Y-184896380D01*
X429971452Y-184896380D02*
X429971452Y-184753523D01*
X429971452Y-184753523D02*
X430019071Y-184658285D01*
X430019071Y-184658285D02*
X430066690Y-184610666D01*
X430066690Y-184610666D02*
X430161928Y-184563047D01*
X430161928Y-184563047D02*
X430447642Y-184563047D01*
X430447642Y-184563047D02*
X430542880Y-184610666D01*
X430542880Y-184610666D02*
X430590500Y-184658285D01*
X430590500Y-184658285D02*
X430638119Y-184753523D01*
X430638119Y-184753523D02*
X430638119Y-184896380D01*
X430638119Y-183705904D02*
X429638119Y-183705904D01*
X430590500Y-183705904D02*
X430638119Y-183801142D01*
X430638119Y-183801142D02*
X430638119Y-183991618D01*
X430638119Y-183991618D02*
X430590500Y-184086856D01*
X430590500Y-184086856D02*
X430542880Y-184134475D01*
X430542880Y-184134475D02*
X430447642Y-184182094D01*
X430447642Y-184182094D02*
X430161928Y-184182094D01*
X430161928Y-184182094D02*
X430066690Y-184134475D01*
X430066690Y-184134475D02*
X430019071Y-184086856D01*
X430019071Y-184086856D02*
X429971452Y-183991618D01*
X429971452Y-183991618D02*
X429971452Y-183801142D01*
X429971452Y-183801142D02*
X430019071Y-183705904D01*
X430590500Y-182848761D02*
X430638119Y-182943999D01*
X430638119Y-182943999D02*
X430638119Y-183134475D01*
X430638119Y-183134475D02*
X430590500Y-183229713D01*
X430590500Y-183229713D02*
X430495261Y-183277332D01*
X430495261Y-183277332D02*
X430114309Y-183277332D01*
X430114309Y-183277332D02*
X430019071Y-183229713D01*
X430019071Y-183229713D02*
X429971452Y-183134475D01*
X429971452Y-183134475D02*
X429971452Y-182943999D01*
X429971452Y-182943999D02*
X430019071Y-182848761D01*
X430019071Y-182848761D02*
X430114309Y-182801142D01*
X430114309Y-182801142D02*
X430209547Y-182801142D01*
X430209547Y-182801142D02*
X430304785Y-183277332D01*
X430638119Y-182372570D02*
X429971452Y-182372570D01*
X430161928Y-182372570D02*
X430066690Y-182324951D01*
X430066690Y-182324951D02*
X430019071Y-182277332D01*
X430019071Y-182277332D02*
X429971452Y-182182094D01*
X429971452Y-182182094D02*
X429971452Y-182086856D01*
X430733357Y-181991618D02*
X430733357Y-181229713D01*
X430590500Y-181039236D02*
X430638119Y-180896379D01*
X430638119Y-180896379D02*
X430638119Y-180658284D01*
X430638119Y-180658284D02*
X430590500Y-180563046D01*
X430590500Y-180563046D02*
X430542880Y-180515427D01*
X430542880Y-180515427D02*
X430447642Y-180467808D01*
X430447642Y-180467808D02*
X430352404Y-180467808D01*
X430352404Y-180467808D02*
X430257166Y-180515427D01*
X430257166Y-180515427D02*
X430209547Y-180563046D01*
X430209547Y-180563046D02*
X430161928Y-180658284D01*
X430161928Y-180658284D02*
X430114309Y-180848760D01*
X430114309Y-180848760D02*
X430066690Y-180943998D01*
X430066690Y-180943998D02*
X430019071Y-180991617D01*
X430019071Y-180991617D02*
X429923833Y-181039236D01*
X429923833Y-181039236D02*
X429828595Y-181039236D01*
X429828595Y-181039236D02*
X429733357Y-180991617D01*
X429733357Y-180991617D02*
X429685738Y-180943998D01*
X429685738Y-180943998D02*
X429638119Y-180848760D01*
X429638119Y-180848760D02*
X429638119Y-180610665D01*
X429638119Y-180610665D02*
X429685738Y-180467808D01*
X429971452Y-180134474D02*
X430638119Y-179943998D01*
X430638119Y-179943998D02*
X430161928Y-179753522D01*
X430161928Y-179753522D02*
X430638119Y-179563046D01*
X430638119Y-179563046D02*
X429971452Y-179372570D01*
X430638119Y-178991617D02*
X429971452Y-178991617D01*
X429638119Y-178991617D02*
X429685738Y-179039236D01*
X429685738Y-179039236D02*
X429733357Y-178991617D01*
X429733357Y-178991617D02*
X429685738Y-178943998D01*
X429685738Y-178943998D02*
X429638119Y-178991617D01*
X429638119Y-178991617D02*
X429733357Y-178991617D01*
X429971452Y-178658284D02*
X429971452Y-178277332D01*
X429638119Y-178515427D02*
X430495261Y-178515427D01*
X430495261Y-178515427D02*
X430590500Y-178467808D01*
X430590500Y-178467808D02*
X430638119Y-178372570D01*
X430638119Y-178372570D02*
X430638119Y-178277332D01*
X430590500Y-177515427D02*
X430638119Y-177610665D01*
X430638119Y-177610665D02*
X430638119Y-177801141D01*
X430638119Y-177801141D02*
X430590500Y-177896379D01*
X430590500Y-177896379D02*
X430542880Y-177943998D01*
X430542880Y-177943998D02*
X430447642Y-177991617D01*
X430447642Y-177991617D02*
X430161928Y-177991617D01*
X430161928Y-177991617D02*
X430066690Y-177943998D01*
X430066690Y-177943998D02*
X430019071Y-177896379D01*
X430019071Y-177896379D02*
X429971452Y-177801141D01*
X429971452Y-177801141D02*
X429971452Y-177610665D01*
X429971452Y-177610665D02*
X430019071Y-177515427D01*
X430638119Y-177086855D02*
X429638119Y-177086855D01*
X430638119Y-176658284D02*
X430114309Y-176658284D01*
X430114309Y-176658284D02*
X430019071Y-176705903D01*
X430019071Y-176705903D02*
X429971452Y-176801141D01*
X429971452Y-176801141D02*
X429971452Y-176943998D01*
X429971452Y-176943998D02*
X430019071Y-177039236D01*
X430019071Y-177039236D02*
X430066690Y-177086855D01*
X426490500Y-183058285D02*
X426538119Y-182915428D01*
X426538119Y-182915428D02*
X426538119Y-182677333D01*
X426538119Y-182677333D02*
X426490500Y-182582095D01*
X426490500Y-182582095D02*
X426442880Y-182534476D01*
X426442880Y-182534476D02*
X426347642Y-182486857D01*
X426347642Y-182486857D02*
X426252404Y-182486857D01*
X426252404Y-182486857D02*
X426157166Y-182534476D01*
X426157166Y-182534476D02*
X426109547Y-182582095D01*
X426109547Y-182582095D02*
X426061928Y-182677333D01*
X426061928Y-182677333D02*
X426014309Y-182867809D01*
X426014309Y-182867809D02*
X425966690Y-182963047D01*
X425966690Y-182963047D02*
X425919071Y-183010666D01*
X425919071Y-183010666D02*
X425823833Y-183058285D01*
X425823833Y-183058285D02*
X425728595Y-183058285D01*
X425728595Y-183058285D02*
X425633357Y-183010666D01*
X425633357Y-183010666D02*
X425585738Y-182963047D01*
X425585738Y-182963047D02*
X425538119Y-182867809D01*
X425538119Y-182867809D02*
X425538119Y-182629714D01*
X425538119Y-182629714D02*
X425585738Y-182486857D01*
X425538119Y-182153523D02*
X426538119Y-181915428D01*
X426538119Y-181915428D02*
X425823833Y-181724952D01*
X425823833Y-181724952D02*
X426538119Y-181534476D01*
X426538119Y-181534476D02*
X425538119Y-181296381D01*
X426633357Y-181153524D02*
X426633357Y-180391619D01*
X426538119Y-179629714D02*
X426538119Y-180201142D01*
X426538119Y-179915428D02*
X425538119Y-179915428D01*
X425538119Y-179915428D02*
X425680976Y-180010666D01*
X425680976Y-180010666D02*
X425776214Y-180105904D01*
X425776214Y-180105904D02*
X425823833Y-180201142D01*
X212066071Y-232905369D02*
X212066071Y-231905369D01*
X212066071Y-231905369D02*
X212399404Y-232619654D01*
X212399404Y-232619654D02*
X212732737Y-231905369D01*
X212732737Y-231905369D02*
X212732737Y-232905369D01*
X213351785Y-232905369D02*
X213256547Y-232857750D01*
X213256547Y-232857750D02*
X213208928Y-232810130D01*
X213208928Y-232810130D02*
X213161309Y-232714892D01*
X213161309Y-232714892D02*
X213161309Y-232429178D01*
X213161309Y-232429178D02*
X213208928Y-232333940D01*
X213208928Y-232333940D02*
X213256547Y-232286321D01*
X213256547Y-232286321D02*
X213351785Y-232238702D01*
X213351785Y-232238702D02*
X213494642Y-232238702D01*
X213494642Y-232238702D02*
X213589880Y-232286321D01*
X213589880Y-232286321D02*
X213637499Y-232333940D01*
X213637499Y-232333940D02*
X213685118Y-232429178D01*
X213685118Y-232429178D02*
X213685118Y-232714892D01*
X213685118Y-232714892D02*
X213637499Y-232810130D01*
X213637499Y-232810130D02*
X213589880Y-232857750D01*
X213589880Y-232857750D02*
X213494642Y-232905369D01*
X213494642Y-232905369D02*
X213351785Y-232905369D01*
X214542261Y-232238702D02*
X214542261Y-232905369D01*
X214113690Y-232238702D02*
X214113690Y-232762511D01*
X214113690Y-232762511D02*
X214161309Y-232857750D01*
X214161309Y-232857750D02*
X214256547Y-232905369D01*
X214256547Y-232905369D02*
X214399404Y-232905369D01*
X214399404Y-232905369D02*
X214494642Y-232857750D01*
X214494642Y-232857750D02*
X214542261Y-232810130D01*
X215018452Y-232238702D02*
X215018452Y-232905369D01*
X215018452Y-232333940D02*
X215066071Y-232286321D01*
X215066071Y-232286321D02*
X215161309Y-232238702D01*
X215161309Y-232238702D02*
X215304166Y-232238702D01*
X215304166Y-232238702D02*
X215399404Y-232286321D01*
X215399404Y-232286321D02*
X215447023Y-232381559D01*
X215447023Y-232381559D02*
X215447023Y-232905369D01*
X215780357Y-232238702D02*
X216161309Y-232238702D01*
X215923214Y-231905369D02*
X215923214Y-232762511D01*
X215923214Y-232762511D02*
X215970833Y-232857750D01*
X215970833Y-232857750D02*
X216066071Y-232905369D01*
X216066071Y-232905369D02*
X216161309Y-232905369D01*
X216494643Y-232905369D02*
X216494643Y-232238702D01*
X216494643Y-231905369D02*
X216447024Y-231952988D01*
X216447024Y-231952988D02*
X216494643Y-232000607D01*
X216494643Y-232000607D02*
X216542262Y-231952988D01*
X216542262Y-231952988D02*
X216494643Y-231905369D01*
X216494643Y-231905369D02*
X216494643Y-232000607D01*
X216970833Y-232238702D02*
X216970833Y-232905369D01*
X216970833Y-232333940D02*
X217018452Y-232286321D01*
X217018452Y-232286321D02*
X217113690Y-232238702D01*
X217113690Y-232238702D02*
X217256547Y-232238702D01*
X217256547Y-232238702D02*
X217351785Y-232286321D01*
X217351785Y-232286321D02*
X217399404Y-232381559D01*
X217399404Y-232381559D02*
X217399404Y-232905369D01*
X218304166Y-232238702D02*
X218304166Y-233048226D01*
X218304166Y-233048226D02*
X218256547Y-233143464D01*
X218256547Y-233143464D02*
X218208928Y-233191083D01*
X218208928Y-233191083D02*
X218113690Y-233238702D01*
X218113690Y-233238702D02*
X217970833Y-233238702D01*
X217970833Y-233238702D02*
X217875595Y-233191083D01*
X218304166Y-232857750D02*
X218208928Y-232905369D01*
X218208928Y-232905369D02*
X218018452Y-232905369D01*
X218018452Y-232905369D02*
X217923214Y-232857750D01*
X217923214Y-232857750D02*
X217875595Y-232810130D01*
X217875595Y-232810130D02*
X217827976Y-232714892D01*
X217827976Y-232714892D02*
X217827976Y-232429178D01*
X217827976Y-232429178D02*
X217875595Y-232333940D01*
X217875595Y-232333940D02*
X217923214Y-232286321D01*
X217923214Y-232286321D02*
X218018452Y-232238702D01*
X218018452Y-232238702D02*
X218208928Y-232238702D01*
X218208928Y-232238702D02*
X218304166Y-232286321D01*
X218780357Y-232905369D02*
X218780357Y-231905369D01*
X218780357Y-232381559D02*
X219351785Y-232381559D01*
X219351785Y-232905369D02*
X219351785Y-231905369D01*
X219970833Y-232905369D02*
X219875595Y-232857750D01*
X219875595Y-232857750D02*
X219827976Y-232810130D01*
X219827976Y-232810130D02*
X219780357Y-232714892D01*
X219780357Y-232714892D02*
X219780357Y-232429178D01*
X219780357Y-232429178D02*
X219827976Y-232333940D01*
X219827976Y-232333940D02*
X219875595Y-232286321D01*
X219875595Y-232286321D02*
X219970833Y-232238702D01*
X219970833Y-232238702D02*
X220113690Y-232238702D01*
X220113690Y-232238702D02*
X220208928Y-232286321D01*
X220208928Y-232286321D02*
X220256547Y-232333940D01*
X220256547Y-232333940D02*
X220304166Y-232429178D01*
X220304166Y-232429178D02*
X220304166Y-232714892D01*
X220304166Y-232714892D02*
X220256547Y-232810130D01*
X220256547Y-232810130D02*
X220208928Y-232857750D01*
X220208928Y-232857750D02*
X220113690Y-232905369D01*
X220113690Y-232905369D02*
X219970833Y-232905369D01*
X220875595Y-232905369D02*
X220780357Y-232857750D01*
X220780357Y-232857750D02*
X220732738Y-232762511D01*
X220732738Y-232762511D02*
X220732738Y-231905369D01*
X221637500Y-232857750D02*
X221542262Y-232905369D01*
X221542262Y-232905369D02*
X221351786Y-232905369D01*
X221351786Y-232905369D02*
X221256548Y-232857750D01*
X221256548Y-232857750D02*
X221208929Y-232762511D01*
X221208929Y-232762511D02*
X221208929Y-232381559D01*
X221208929Y-232381559D02*
X221256548Y-232286321D01*
X221256548Y-232286321D02*
X221351786Y-232238702D01*
X221351786Y-232238702D02*
X221542262Y-232238702D01*
X221542262Y-232238702D02*
X221637500Y-232286321D01*
X221637500Y-232286321D02*
X221685119Y-232381559D01*
X221685119Y-232381559D02*
X221685119Y-232476797D01*
X221685119Y-232476797D02*
X221208929Y-232572035D01*
X221875596Y-233000607D02*
X222637500Y-233000607D01*
X222875596Y-232905369D02*
X222875596Y-231905369D01*
X222875596Y-231905369D02*
X223256548Y-231905369D01*
X223256548Y-231905369D02*
X223351786Y-231952988D01*
X223351786Y-231952988D02*
X223399405Y-232000607D01*
X223399405Y-232000607D02*
X223447024Y-232095845D01*
X223447024Y-232095845D02*
X223447024Y-232238702D01*
X223447024Y-232238702D02*
X223399405Y-232333940D01*
X223399405Y-232333940D02*
X223351786Y-232381559D01*
X223351786Y-232381559D02*
X223256548Y-232429178D01*
X223256548Y-232429178D02*
X222875596Y-232429178D01*
X224304167Y-232905369D02*
X224304167Y-232381559D01*
X224304167Y-232381559D02*
X224256548Y-232286321D01*
X224256548Y-232286321D02*
X224161310Y-232238702D01*
X224161310Y-232238702D02*
X223970834Y-232238702D01*
X223970834Y-232238702D02*
X223875596Y-232286321D01*
X224304167Y-232857750D02*
X224208929Y-232905369D01*
X224208929Y-232905369D02*
X223970834Y-232905369D01*
X223970834Y-232905369D02*
X223875596Y-232857750D01*
X223875596Y-232857750D02*
X223827977Y-232762511D01*
X223827977Y-232762511D02*
X223827977Y-232667273D01*
X223827977Y-232667273D02*
X223875596Y-232572035D01*
X223875596Y-232572035D02*
X223970834Y-232524416D01*
X223970834Y-232524416D02*
X224208929Y-232524416D01*
X224208929Y-232524416D02*
X224304167Y-232476797D01*
X225208929Y-232905369D02*
X225208929Y-231905369D01*
X225208929Y-232857750D02*
X225113691Y-232905369D01*
X225113691Y-232905369D02*
X224923215Y-232905369D01*
X224923215Y-232905369D02*
X224827977Y-232857750D01*
X224827977Y-232857750D02*
X224780358Y-232810130D01*
X224780358Y-232810130D02*
X224732739Y-232714892D01*
X224732739Y-232714892D02*
X224732739Y-232429178D01*
X224732739Y-232429178D02*
X224780358Y-232333940D01*
X224780358Y-232333940D02*
X224827977Y-232286321D01*
X224827977Y-232286321D02*
X224923215Y-232238702D01*
X224923215Y-232238702D02*
X225113691Y-232238702D01*
X225113691Y-232238702D02*
X225208929Y-232286321D01*
X218175595Y-229705369D02*
X218175595Y-228705369D01*
X218175595Y-229181559D02*
X218747023Y-229181559D01*
X218747023Y-229705369D02*
X218747023Y-228705369D01*
X219175595Y-228800607D02*
X219223214Y-228752988D01*
X219223214Y-228752988D02*
X219318452Y-228705369D01*
X219318452Y-228705369D02*
X219556547Y-228705369D01*
X219556547Y-228705369D02*
X219651785Y-228752988D01*
X219651785Y-228752988D02*
X219699404Y-228800607D01*
X219699404Y-228800607D02*
X219747023Y-228895845D01*
X219747023Y-228895845D02*
X219747023Y-228991083D01*
X219747023Y-228991083D02*
X219699404Y-229133940D01*
X219699404Y-229133940D02*
X219127976Y-229705369D01*
X219127976Y-229705369D02*
X219747023Y-229705369D01*
X259016071Y-244355369D02*
X259016071Y-243355369D01*
X259016071Y-243355369D02*
X259349404Y-244069654D01*
X259349404Y-244069654D02*
X259682737Y-243355369D01*
X259682737Y-243355369D02*
X259682737Y-244355369D01*
X260301785Y-244355369D02*
X260206547Y-244307750D01*
X260206547Y-244307750D02*
X260158928Y-244260130D01*
X260158928Y-244260130D02*
X260111309Y-244164892D01*
X260111309Y-244164892D02*
X260111309Y-243879178D01*
X260111309Y-243879178D02*
X260158928Y-243783940D01*
X260158928Y-243783940D02*
X260206547Y-243736321D01*
X260206547Y-243736321D02*
X260301785Y-243688702D01*
X260301785Y-243688702D02*
X260444642Y-243688702D01*
X260444642Y-243688702D02*
X260539880Y-243736321D01*
X260539880Y-243736321D02*
X260587499Y-243783940D01*
X260587499Y-243783940D02*
X260635118Y-243879178D01*
X260635118Y-243879178D02*
X260635118Y-244164892D01*
X260635118Y-244164892D02*
X260587499Y-244260130D01*
X260587499Y-244260130D02*
X260539880Y-244307750D01*
X260539880Y-244307750D02*
X260444642Y-244355369D01*
X260444642Y-244355369D02*
X260301785Y-244355369D01*
X261492261Y-243688702D02*
X261492261Y-244355369D01*
X261063690Y-243688702D02*
X261063690Y-244212511D01*
X261063690Y-244212511D02*
X261111309Y-244307750D01*
X261111309Y-244307750D02*
X261206547Y-244355369D01*
X261206547Y-244355369D02*
X261349404Y-244355369D01*
X261349404Y-244355369D02*
X261444642Y-244307750D01*
X261444642Y-244307750D02*
X261492261Y-244260130D01*
X261968452Y-243688702D02*
X261968452Y-244355369D01*
X261968452Y-243783940D02*
X262016071Y-243736321D01*
X262016071Y-243736321D02*
X262111309Y-243688702D01*
X262111309Y-243688702D02*
X262254166Y-243688702D01*
X262254166Y-243688702D02*
X262349404Y-243736321D01*
X262349404Y-243736321D02*
X262397023Y-243831559D01*
X262397023Y-243831559D02*
X262397023Y-244355369D01*
X262730357Y-243688702D02*
X263111309Y-243688702D01*
X262873214Y-243355369D02*
X262873214Y-244212511D01*
X262873214Y-244212511D02*
X262920833Y-244307750D01*
X262920833Y-244307750D02*
X263016071Y-244355369D01*
X263016071Y-244355369D02*
X263111309Y-244355369D01*
X263444643Y-244355369D02*
X263444643Y-243688702D01*
X263444643Y-243355369D02*
X263397024Y-243402988D01*
X263397024Y-243402988D02*
X263444643Y-243450607D01*
X263444643Y-243450607D02*
X263492262Y-243402988D01*
X263492262Y-243402988D02*
X263444643Y-243355369D01*
X263444643Y-243355369D02*
X263444643Y-243450607D01*
X263920833Y-243688702D02*
X263920833Y-244355369D01*
X263920833Y-243783940D02*
X263968452Y-243736321D01*
X263968452Y-243736321D02*
X264063690Y-243688702D01*
X264063690Y-243688702D02*
X264206547Y-243688702D01*
X264206547Y-243688702D02*
X264301785Y-243736321D01*
X264301785Y-243736321D02*
X264349404Y-243831559D01*
X264349404Y-243831559D02*
X264349404Y-244355369D01*
X265254166Y-243688702D02*
X265254166Y-244498226D01*
X265254166Y-244498226D02*
X265206547Y-244593464D01*
X265206547Y-244593464D02*
X265158928Y-244641083D01*
X265158928Y-244641083D02*
X265063690Y-244688702D01*
X265063690Y-244688702D02*
X264920833Y-244688702D01*
X264920833Y-244688702D02*
X264825595Y-244641083D01*
X265254166Y-244307750D02*
X265158928Y-244355369D01*
X265158928Y-244355369D02*
X264968452Y-244355369D01*
X264968452Y-244355369D02*
X264873214Y-244307750D01*
X264873214Y-244307750D02*
X264825595Y-244260130D01*
X264825595Y-244260130D02*
X264777976Y-244164892D01*
X264777976Y-244164892D02*
X264777976Y-243879178D01*
X264777976Y-243879178D02*
X264825595Y-243783940D01*
X264825595Y-243783940D02*
X264873214Y-243736321D01*
X264873214Y-243736321D02*
X264968452Y-243688702D01*
X264968452Y-243688702D02*
X265158928Y-243688702D01*
X265158928Y-243688702D02*
X265254166Y-243736321D01*
X265730357Y-244355369D02*
X265730357Y-243355369D01*
X265730357Y-243831559D02*
X266301785Y-243831559D01*
X266301785Y-244355369D02*
X266301785Y-243355369D01*
X266920833Y-244355369D02*
X266825595Y-244307750D01*
X266825595Y-244307750D02*
X266777976Y-244260130D01*
X266777976Y-244260130D02*
X266730357Y-244164892D01*
X266730357Y-244164892D02*
X266730357Y-243879178D01*
X266730357Y-243879178D02*
X266777976Y-243783940D01*
X266777976Y-243783940D02*
X266825595Y-243736321D01*
X266825595Y-243736321D02*
X266920833Y-243688702D01*
X266920833Y-243688702D02*
X267063690Y-243688702D01*
X267063690Y-243688702D02*
X267158928Y-243736321D01*
X267158928Y-243736321D02*
X267206547Y-243783940D01*
X267206547Y-243783940D02*
X267254166Y-243879178D01*
X267254166Y-243879178D02*
X267254166Y-244164892D01*
X267254166Y-244164892D02*
X267206547Y-244260130D01*
X267206547Y-244260130D02*
X267158928Y-244307750D01*
X267158928Y-244307750D02*
X267063690Y-244355369D01*
X267063690Y-244355369D02*
X266920833Y-244355369D01*
X267825595Y-244355369D02*
X267730357Y-244307750D01*
X267730357Y-244307750D02*
X267682738Y-244212511D01*
X267682738Y-244212511D02*
X267682738Y-243355369D01*
X268587500Y-244307750D02*
X268492262Y-244355369D01*
X268492262Y-244355369D02*
X268301786Y-244355369D01*
X268301786Y-244355369D02*
X268206548Y-244307750D01*
X268206548Y-244307750D02*
X268158929Y-244212511D01*
X268158929Y-244212511D02*
X268158929Y-243831559D01*
X268158929Y-243831559D02*
X268206548Y-243736321D01*
X268206548Y-243736321D02*
X268301786Y-243688702D01*
X268301786Y-243688702D02*
X268492262Y-243688702D01*
X268492262Y-243688702D02*
X268587500Y-243736321D01*
X268587500Y-243736321D02*
X268635119Y-243831559D01*
X268635119Y-243831559D02*
X268635119Y-243926797D01*
X268635119Y-243926797D02*
X268158929Y-244022035D01*
X268825596Y-244450607D02*
X269587500Y-244450607D01*
X269825596Y-244355369D02*
X269825596Y-243355369D01*
X269825596Y-243355369D02*
X270206548Y-243355369D01*
X270206548Y-243355369D02*
X270301786Y-243402988D01*
X270301786Y-243402988D02*
X270349405Y-243450607D01*
X270349405Y-243450607D02*
X270397024Y-243545845D01*
X270397024Y-243545845D02*
X270397024Y-243688702D01*
X270397024Y-243688702D02*
X270349405Y-243783940D01*
X270349405Y-243783940D02*
X270301786Y-243831559D01*
X270301786Y-243831559D02*
X270206548Y-243879178D01*
X270206548Y-243879178D02*
X269825596Y-243879178D01*
X271254167Y-244355369D02*
X271254167Y-243831559D01*
X271254167Y-243831559D02*
X271206548Y-243736321D01*
X271206548Y-243736321D02*
X271111310Y-243688702D01*
X271111310Y-243688702D02*
X270920834Y-243688702D01*
X270920834Y-243688702D02*
X270825596Y-243736321D01*
X271254167Y-244307750D02*
X271158929Y-244355369D01*
X271158929Y-244355369D02*
X270920834Y-244355369D01*
X270920834Y-244355369D02*
X270825596Y-244307750D01*
X270825596Y-244307750D02*
X270777977Y-244212511D01*
X270777977Y-244212511D02*
X270777977Y-244117273D01*
X270777977Y-244117273D02*
X270825596Y-244022035D01*
X270825596Y-244022035D02*
X270920834Y-243974416D01*
X270920834Y-243974416D02*
X271158929Y-243974416D01*
X271158929Y-243974416D02*
X271254167Y-243926797D01*
X272158929Y-244355369D02*
X272158929Y-243355369D01*
X272158929Y-244307750D02*
X272063691Y-244355369D01*
X272063691Y-244355369D02*
X271873215Y-244355369D01*
X271873215Y-244355369D02*
X271777977Y-244307750D01*
X271777977Y-244307750D02*
X271730358Y-244260130D01*
X271730358Y-244260130D02*
X271682739Y-244164892D01*
X271682739Y-244164892D02*
X271682739Y-243879178D01*
X271682739Y-243879178D02*
X271730358Y-243783940D01*
X271730358Y-243783940D02*
X271777977Y-243736321D01*
X271777977Y-243736321D02*
X271873215Y-243688702D01*
X271873215Y-243688702D02*
X272063691Y-243688702D01*
X272063691Y-243688702D02*
X272158929Y-243736321D01*
X265125595Y-241155369D02*
X265125595Y-240155369D01*
X265125595Y-240631559D02*
X265697023Y-240631559D01*
X265697023Y-241155369D02*
X265697023Y-240155369D01*
X266077976Y-240155369D02*
X266697023Y-240155369D01*
X266697023Y-240155369D02*
X266363690Y-240536321D01*
X266363690Y-240536321D02*
X266506547Y-240536321D01*
X266506547Y-240536321D02*
X266601785Y-240583940D01*
X266601785Y-240583940D02*
X266649404Y-240631559D01*
X266649404Y-240631559D02*
X266697023Y-240726797D01*
X266697023Y-240726797D02*
X266697023Y-240964892D01*
X266697023Y-240964892D02*
X266649404Y-241060130D01*
X266649404Y-241060130D02*
X266601785Y-241107750D01*
X266601785Y-241107750D02*
X266506547Y-241155369D01*
X266506547Y-241155369D02*
X266220833Y-241155369D01*
X266220833Y-241155369D02*
X266125595Y-241107750D01*
X266125595Y-241107750D02*
X266077976Y-241060130D01*
X289866071Y-198131619D02*
X289866071Y-197131619D01*
X289866071Y-197131619D02*
X290199404Y-197845904D01*
X290199404Y-197845904D02*
X290532737Y-197131619D01*
X290532737Y-197131619D02*
X290532737Y-198131619D01*
X291151785Y-198131619D02*
X291056547Y-198084000D01*
X291056547Y-198084000D02*
X291008928Y-198036380D01*
X291008928Y-198036380D02*
X290961309Y-197941142D01*
X290961309Y-197941142D02*
X290961309Y-197655428D01*
X290961309Y-197655428D02*
X291008928Y-197560190D01*
X291008928Y-197560190D02*
X291056547Y-197512571D01*
X291056547Y-197512571D02*
X291151785Y-197464952D01*
X291151785Y-197464952D02*
X291294642Y-197464952D01*
X291294642Y-197464952D02*
X291389880Y-197512571D01*
X291389880Y-197512571D02*
X291437499Y-197560190D01*
X291437499Y-197560190D02*
X291485118Y-197655428D01*
X291485118Y-197655428D02*
X291485118Y-197941142D01*
X291485118Y-197941142D02*
X291437499Y-198036380D01*
X291437499Y-198036380D02*
X291389880Y-198084000D01*
X291389880Y-198084000D02*
X291294642Y-198131619D01*
X291294642Y-198131619D02*
X291151785Y-198131619D01*
X292342261Y-197464952D02*
X292342261Y-198131619D01*
X291913690Y-197464952D02*
X291913690Y-197988761D01*
X291913690Y-197988761D02*
X291961309Y-198084000D01*
X291961309Y-198084000D02*
X292056547Y-198131619D01*
X292056547Y-198131619D02*
X292199404Y-198131619D01*
X292199404Y-198131619D02*
X292294642Y-198084000D01*
X292294642Y-198084000D02*
X292342261Y-198036380D01*
X292818452Y-197464952D02*
X292818452Y-198131619D01*
X292818452Y-197560190D02*
X292866071Y-197512571D01*
X292866071Y-197512571D02*
X292961309Y-197464952D01*
X292961309Y-197464952D02*
X293104166Y-197464952D01*
X293104166Y-197464952D02*
X293199404Y-197512571D01*
X293199404Y-197512571D02*
X293247023Y-197607809D01*
X293247023Y-197607809D02*
X293247023Y-198131619D01*
X293580357Y-197464952D02*
X293961309Y-197464952D01*
X293723214Y-197131619D02*
X293723214Y-197988761D01*
X293723214Y-197988761D02*
X293770833Y-198084000D01*
X293770833Y-198084000D02*
X293866071Y-198131619D01*
X293866071Y-198131619D02*
X293961309Y-198131619D01*
X294294643Y-198131619D02*
X294294643Y-197464952D01*
X294294643Y-197131619D02*
X294247024Y-197179238D01*
X294247024Y-197179238D02*
X294294643Y-197226857D01*
X294294643Y-197226857D02*
X294342262Y-197179238D01*
X294342262Y-197179238D02*
X294294643Y-197131619D01*
X294294643Y-197131619D02*
X294294643Y-197226857D01*
X294770833Y-197464952D02*
X294770833Y-198131619D01*
X294770833Y-197560190D02*
X294818452Y-197512571D01*
X294818452Y-197512571D02*
X294913690Y-197464952D01*
X294913690Y-197464952D02*
X295056547Y-197464952D01*
X295056547Y-197464952D02*
X295151785Y-197512571D01*
X295151785Y-197512571D02*
X295199404Y-197607809D01*
X295199404Y-197607809D02*
X295199404Y-198131619D01*
X296104166Y-197464952D02*
X296104166Y-198274476D01*
X296104166Y-198274476D02*
X296056547Y-198369714D01*
X296056547Y-198369714D02*
X296008928Y-198417333D01*
X296008928Y-198417333D02*
X295913690Y-198464952D01*
X295913690Y-198464952D02*
X295770833Y-198464952D01*
X295770833Y-198464952D02*
X295675595Y-198417333D01*
X296104166Y-198084000D02*
X296008928Y-198131619D01*
X296008928Y-198131619D02*
X295818452Y-198131619D01*
X295818452Y-198131619D02*
X295723214Y-198084000D01*
X295723214Y-198084000D02*
X295675595Y-198036380D01*
X295675595Y-198036380D02*
X295627976Y-197941142D01*
X295627976Y-197941142D02*
X295627976Y-197655428D01*
X295627976Y-197655428D02*
X295675595Y-197560190D01*
X295675595Y-197560190D02*
X295723214Y-197512571D01*
X295723214Y-197512571D02*
X295818452Y-197464952D01*
X295818452Y-197464952D02*
X296008928Y-197464952D01*
X296008928Y-197464952D02*
X296104166Y-197512571D01*
X296580357Y-198131619D02*
X296580357Y-197131619D01*
X296580357Y-197607809D02*
X297151785Y-197607809D01*
X297151785Y-198131619D02*
X297151785Y-197131619D01*
X297770833Y-198131619D02*
X297675595Y-198084000D01*
X297675595Y-198084000D02*
X297627976Y-198036380D01*
X297627976Y-198036380D02*
X297580357Y-197941142D01*
X297580357Y-197941142D02*
X297580357Y-197655428D01*
X297580357Y-197655428D02*
X297627976Y-197560190D01*
X297627976Y-197560190D02*
X297675595Y-197512571D01*
X297675595Y-197512571D02*
X297770833Y-197464952D01*
X297770833Y-197464952D02*
X297913690Y-197464952D01*
X297913690Y-197464952D02*
X298008928Y-197512571D01*
X298008928Y-197512571D02*
X298056547Y-197560190D01*
X298056547Y-197560190D02*
X298104166Y-197655428D01*
X298104166Y-197655428D02*
X298104166Y-197941142D01*
X298104166Y-197941142D02*
X298056547Y-198036380D01*
X298056547Y-198036380D02*
X298008928Y-198084000D01*
X298008928Y-198084000D02*
X297913690Y-198131619D01*
X297913690Y-198131619D02*
X297770833Y-198131619D01*
X298675595Y-198131619D02*
X298580357Y-198084000D01*
X298580357Y-198084000D02*
X298532738Y-197988761D01*
X298532738Y-197988761D02*
X298532738Y-197131619D01*
X299437500Y-198084000D02*
X299342262Y-198131619D01*
X299342262Y-198131619D02*
X299151786Y-198131619D01*
X299151786Y-198131619D02*
X299056548Y-198084000D01*
X299056548Y-198084000D02*
X299008929Y-197988761D01*
X299008929Y-197988761D02*
X299008929Y-197607809D01*
X299008929Y-197607809D02*
X299056548Y-197512571D01*
X299056548Y-197512571D02*
X299151786Y-197464952D01*
X299151786Y-197464952D02*
X299342262Y-197464952D01*
X299342262Y-197464952D02*
X299437500Y-197512571D01*
X299437500Y-197512571D02*
X299485119Y-197607809D01*
X299485119Y-197607809D02*
X299485119Y-197703047D01*
X299485119Y-197703047D02*
X299008929Y-197798285D01*
X299675596Y-198226857D02*
X300437500Y-198226857D01*
X300675596Y-198131619D02*
X300675596Y-197131619D01*
X300675596Y-197131619D02*
X301056548Y-197131619D01*
X301056548Y-197131619D02*
X301151786Y-197179238D01*
X301151786Y-197179238D02*
X301199405Y-197226857D01*
X301199405Y-197226857D02*
X301247024Y-197322095D01*
X301247024Y-197322095D02*
X301247024Y-197464952D01*
X301247024Y-197464952D02*
X301199405Y-197560190D01*
X301199405Y-197560190D02*
X301151786Y-197607809D01*
X301151786Y-197607809D02*
X301056548Y-197655428D01*
X301056548Y-197655428D02*
X300675596Y-197655428D01*
X302104167Y-198131619D02*
X302104167Y-197607809D01*
X302104167Y-197607809D02*
X302056548Y-197512571D01*
X302056548Y-197512571D02*
X301961310Y-197464952D01*
X301961310Y-197464952D02*
X301770834Y-197464952D01*
X301770834Y-197464952D02*
X301675596Y-197512571D01*
X302104167Y-198084000D02*
X302008929Y-198131619D01*
X302008929Y-198131619D02*
X301770834Y-198131619D01*
X301770834Y-198131619D02*
X301675596Y-198084000D01*
X301675596Y-198084000D02*
X301627977Y-197988761D01*
X301627977Y-197988761D02*
X301627977Y-197893523D01*
X301627977Y-197893523D02*
X301675596Y-197798285D01*
X301675596Y-197798285D02*
X301770834Y-197750666D01*
X301770834Y-197750666D02*
X302008929Y-197750666D01*
X302008929Y-197750666D02*
X302104167Y-197703047D01*
X303008929Y-198131619D02*
X303008929Y-197131619D01*
X303008929Y-198084000D02*
X302913691Y-198131619D01*
X302913691Y-198131619D02*
X302723215Y-198131619D01*
X302723215Y-198131619D02*
X302627977Y-198084000D01*
X302627977Y-198084000D02*
X302580358Y-198036380D01*
X302580358Y-198036380D02*
X302532739Y-197941142D01*
X302532739Y-197941142D02*
X302532739Y-197655428D01*
X302532739Y-197655428D02*
X302580358Y-197560190D01*
X302580358Y-197560190D02*
X302627977Y-197512571D01*
X302627977Y-197512571D02*
X302723215Y-197464952D01*
X302723215Y-197464952D02*
X302913691Y-197464952D01*
X302913691Y-197464952D02*
X303008929Y-197512571D01*
X295975595Y-194931619D02*
X295975595Y-193931619D01*
X295975595Y-194407809D02*
X296547023Y-194407809D01*
X296547023Y-194931619D02*
X296547023Y-193931619D01*
X297451785Y-194264952D02*
X297451785Y-194931619D01*
X297213690Y-193884000D02*
X296975595Y-194598285D01*
X296975595Y-194598285D02*
X297594642Y-194598285D01*
X320516071Y-217181619D02*
X320516071Y-216181619D01*
X320516071Y-216181619D02*
X320849404Y-216895904D01*
X320849404Y-216895904D02*
X321182737Y-216181619D01*
X321182737Y-216181619D02*
X321182737Y-217181619D01*
X321801785Y-217181619D02*
X321706547Y-217134000D01*
X321706547Y-217134000D02*
X321658928Y-217086380D01*
X321658928Y-217086380D02*
X321611309Y-216991142D01*
X321611309Y-216991142D02*
X321611309Y-216705428D01*
X321611309Y-216705428D02*
X321658928Y-216610190D01*
X321658928Y-216610190D02*
X321706547Y-216562571D01*
X321706547Y-216562571D02*
X321801785Y-216514952D01*
X321801785Y-216514952D02*
X321944642Y-216514952D01*
X321944642Y-216514952D02*
X322039880Y-216562571D01*
X322039880Y-216562571D02*
X322087499Y-216610190D01*
X322087499Y-216610190D02*
X322135118Y-216705428D01*
X322135118Y-216705428D02*
X322135118Y-216991142D01*
X322135118Y-216991142D02*
X322087499Y-217086380D01*
X322087499Y-217086380D02*
X322039880Y-217134000D01*
X322039880Y-217134000D02*
X321944642Y-217181619D01*
X321944642Y-217181619D02*
X321801785Y-217181619D01*
X322992261Y-216514952D02*
X322992261Y-217181619D01*
X322563690Y-216514952D02*
X322563690Y-217038761D01*
X322563690Y-217038761D02*
X322611309Y-217134000D01*
X322611309Y-217134000D02*
X322706547Y-217181619D01*
X322706547Y-217181619D02*
X322849404Y-217181619D01*
X322849404Y-217181619D02*
X322944642Y-217134000D01*
X322944642Y-217134000D02*
X322992261Y-217086380D01*
X323468452Y-216514952D02*
X323468452Y-217181619D01*
X323468452Y-216610190D02*
X323516071Y-216562571D01*
X323516071Y-216562571D02*
X323611309Y-216514952D01*
X323611309Y-216514952D02*
X323754166Y-216514952D01*
X323754166Y-216514952D02*
X323849404Y-216562571D01*
X323849404Y-216562571D02*
X323897023Y-216657809D01*
X323897023Y-216657809D02*
X323897023Y-217181619D01*
X324230357Y-216514952D02*
X324611309Y-216514952D01*
X324373214Y-216181619D02*
X324373214Y-217038761D01*
X324373214Y-217038761D02*
X324420833Y-217134000D01*
X324420833Y-217134000D02*
X324516071Y-217181619D01*
X324516071Y-217181619D02*
X324611309Y-217181619D01*
X324944643Y-217181619D02*
X324944643Y-216514952D01*
X324944643Y-216181619D02*
X324897024Y-216229238D01*
X324897024Y-216229238D02*
X324944643Y-216276857D01*
X324944643Y-216276857D02*
X324992262Y-216229238D01*
X324992262Y-216229238D02*
X324944643Y-216181619D01*
X324944643Y-216181619D02*
X324944643Y-216276857D01*
X325420833Y-216514952D02*
X325420833Y-217181619D01*
X325420833Y-216610190D02*
X325468452Y-216562571D01*
X325468452Y-216562571D02*
X325563690Y-216514952D01*
X325563690Y-216514952D02*
X325706547Y-216514952D01*
X325706547Y-216514952D02*
X325801785Y-216562571D01*
X325801785Y-216562571D02*
X325849404Y-216657809D01*
X325849404Y-216657809D02*
X325849404Y-217181619D01*
X326754166Y-216514952D02*
X326754166Y-217324476D01*
X326754166Y-217324476D02*
X326706547Y-217419714D01*
X326706547Y-217419714D02*
X326658928Y-217467333D01*
X326658928Y-217467333D02*
X326563690Y-217514952D01*
X326563690Y-217514952D02*
X326420833Y-217514952D01*
X326420833Y-217514952D02*
X326325595Y-217467333D01*
X326754166Y-217134000D02*
X326658928Y-217181619D01*
X326658928Y-217181619D02*
X326468452Y-217181619D01*
X326468452Y-217181619D02*
X326373214Y-217134000D01*
X326373214Y-217134000D02*
X326325595Y-217086380D01*
X326325595Y-217086380D02*
X326277976Y-216991142D01*
X326277976Y-216991142D02*
X326277976Y-216705428D01*
X326277976Y-216705428D02*
X326325595Y-216610190D01*
X326325595Y-216610190D02*
X326373214Y-216562571D01*
X326373214Y-216562571D02*
X326468452Y-216514952D01*
X326468452Y-216514952D02*
X326658928Y-216514952D01*
X326658928Y-216514952D02*
X326754166Y-216562571D01*
X327230357Y-217181619D02*
X327230357Y-216181619D01*
X327230357Y-216657809D02*
X327801785Y-216657809D01*
X327801785Y-217181619D02*
X327801785Y-216181619D01*
X328420833Y-217181619D02*
X328325595Y-217134000D01*
X328325595Y-217134000D02*
X328277976Y-217086380D01*
X328277976Y-217086380D02*
X328230357Y-216991142D01*
X328230357Y-216991142D02*
X328230357Y-216705428D01*
X328230357Y-216705428D02*
X328277976Y-216610190D01*
X328277976Y-216610190D02*
X328325595Y-216562571D01*
X328325595Y-216562571D02*
X328420833Y-216514952D01*
X328420833Y-216514952D02*
X328563690Y-216514952D01*
X328563690Y-216514952D02*
X328658928Y-216562571D01*
X328658928Y-216562571D02*
X328706547Y-216610190D01*
X328706547Y-216610190D02*
X328754166Y-216705428D01*
X328754166Y-216705428D02*
X328754166Y-216991142D01*
X328754166Y-216991142D02*
X328706547Y-217086380D01*
X328706547Y-217086380D02*
X328658928Y-217134000D01*
X328658928Y-217134000D02*
X328563690Y-217181619D01*
X328563690Y-217181619D02*
X328420833Y-217181619D01*
X329325595Y-217181619D02*
X329230357Y-217134000D01*
X329230357Y-217134000D02*
X329182738Y-217038761D01*
X329182738Y-217038761D02*
X329182738Y-216181619D01*
X330087500Y-217134000D02*
X329992262Y-217181619D01*
X329992262Y-217181619D02*
X329801786Y-217181619D01*
X329801786Y-217181619D02*
X329706548Y-217134000D01*
X329706548Y-217134000D02*
X329658929Y-217038761D01*
X329658929Y-217038761D02*
X329658929Y-216657809D01*
X329658929Y-216657809D02*
X329706548Y-216562571D01*
X329706548Y-216562571D02*
X329801786Y-216514952D01*
X329801786Y-216514952D02*
X329992262Y-216514952D01*
X329992262Y-216514952D02*
X330087500Y-216562571D01*
X330087500Y-216562571D02*
X330135119Y-216657809D01*
X330135119Y-216657809D02*
X330135119Y-216753047D01*
X330135119Y-216753047D02*
X329658929Y-216848285D01*
X330325596Y-217276857D02*
X331087500Y-217276857D01*
X331325596Y-217181619D02*
X331325596Y-216181619D01*
X331325596Y-216181619D02*
X331706548Y-216181619D01*
X331706548Y-216181619D02*
X331801786Y-216229238D01*
X331801786Y-216229238D02*
X331849405Y-216276857D01*
X331849405Y-216276857D02*
X331897024Y-216372095D01*
X331897024Y-216372095D02*
X331897024Y-216514952D01*
X331897024Y-216514952D02*
X331849405Y-216610190D01*
X331849405Y-216610190D02*
X331801786Y-216657809D01*
X331801786Y-216657809D02*
X331706548Y-216705428D01*
X331706548Y-216705428D02*
X331325596Y-216705428D01*
X332754167Y-217181619D02*
X332754167Y-216657809D01*
X332754167Y-216657809D02*
X332706548Y-216562571D01*
X332706548Y-216562571D02*
X332611310Y-216514952D01*
X332611310Y-216514952D02*
X332420834Y-216514952D01*
X332420834Y-216514952D02*
X332325596Y-216562571D01*
X332754167Y-217134000D02*
X332658929Y-217181619D01*
X332658929Y-217181619D02*
X332420834Y-217181619D01*
X332420834Y-217181619D02*
X332325596Y-217134000D01*
X332325596Y-217134000D02*
X332277977Y-217038761D01*
X332277977Y-217038761D02*
X332277977Y-216943523D01*
X332277977Y-216943523D02*
X332325596Y-216848285D01*
X332325596Y-216848285D02*
X332420834Y-216800666D01*
X332420834Y-216800666D02*
X332658929Y-216800666D01*
X332658929Y-216800666D02*
X332754167Y-216753047D01*
X333658929Y-217181619D02*
X333658929Y-216181619D01*
X333658929Y-217134000D02*
X333563691Y-217181619D01*
X333563691Y-217181619D02*
X333373215Y-217181619D01*
X333373215Y-217181619D02*
X333277977Y-217134000D01*
X333277977Y-217134000D02*
X333230358Y-217086380D01*
X333230358Y-217086380D02*
X333182739Y-216991142D01*
X333182739Y-216991142D02*
X333182739Y-216705428D01*
X333182739Y-216705428D02*
X333230358Y-216610190D01*
X333230358Y-216610190D02*
X333277977Y-216562571D01*
X333277977Y-216562571D02*
X333373215Y-216514952D01*
X333373215Y-216514952D02*
X333563691Y-216514952D01*
X333563691Y-216514952D02*
X333658929Y-216562571D01*
X326625595Y-213981619D02*
X326625595Y-212981619D01*
X326625595Y-213457809D02*
X327197023Y-213457809D01*
X327197023Y-213981619D02*
X327197023Y-212981619D01*
X328149404Y-212981619D02*
X327673214Y-212981619D01*
X327673214Y-212981619D02*
X327625595Y-213457809D01*
X327625595Y-213457809D02*
X327673214Y-213410190D01*
X327673214Y-213410190D02*
X327768452Y-213362571D01*
X327768452Y-213362571D02*
X328006547Y-213362571D01*
X328006547Y-213362571D02*
X328101785Y-213410190D01*
X328101785Y-213410190D02*
X328149404Y-213457809D01*
X328149404Y-213457809D02*
X328197023Y-213553047D01*
X328197023Y-213553047D02*
X328197023Y-213791142D01*
X328197023Y-213791142D02*
X328149404Y-213886380D01*
X328149404Y-213886380D02*
X328101785Y-213934000D01*
X328101785Y-213934000D02*
X328006547Y-213981619D01*
X328006547Y-213981619D02*
X327768452Y-213981619D01*
X327768452Y-213981619D02*
X327673214Y-213934000D01*
X327673214Y-213934000D02*
X327625595Y-213886380D01*
X388226571Y-190656619D02*
X388226571Y-189656619D01*
X388226571Y-189656619D02*
X388559904Y-190370904D01*
X388559904Y-190370904D02*
X388893237Y-189656619D01*
X388893237Y-189656619D02*
X388893237Y-190656619D01*
X389512285Y-190656619D02*
X389417047Y-190609000D01*
X389417047Y-190609000D02*
X389369428Y-190561380D01*
X389369428Y-190561380D02*
X389321809Y-190466142D01*
X389321809Y-190466142D02*
X389321809Y-190180428D01*
X389321809Y-190180428D02*
X389369428Y-190085190D01*
X389369428Y-190085190D02*
X389417047Y-190037571D01*
X389417047Y-190037571D02*
X389512285Y-189989952D01*
X389512285Y-189989952D02*
X389655142Y-189989952D01*
X389655142Y-189989952D02*
X389750380Y-190037571D01*
X389750380Y-190037571D02*
X389797999Y-190085190D01*
X389797999Y-190085190D02*
X389845618Y-190180428D01*
X389845618Y-190180428D02*
X389845618Y-190466142D01*
X389845618Y-190466142D02*
X389797999Y-190561380D01*
X389797999Y-190561380D02*
X389750380Y-190609000D01*
X389750380Y-190609000D02*
X389655142Y-190656619D01*
X389655142Y-190656619D02*
X389512285Y-190656619D01*
X390702761Y-189989952D02*
X390702761Y-190656619D01*
X390274190Y-189989952D02*
X390274190Y-190513761D01*
X390274190Y-190513761D02*
X390321809Y-190609000D01*
X390321809Y-190609000D02*
X390417047Y-190656619D01*
X390417047Y-190656619D02*
X390559904Y-190656619D01*
X390559904Y-190656619D02*
X390655142Y-190609000D01*
X390655142Y-190609000D02*
X390702761Y-190561380D01*
X391178952Y-189989952D02*
X391178952Y-190656619D01*
X391178952Y-190085190D02*
X391226571Y-190037571D01*
X391226571Y-190037571D02*
X391321809Y-189989952D01*
X391321809Y-189989952D02*
X391464666Y-189989952D01*
X391464666Y-189989952D02*
X391559904Y-190037571D01*
X391559904Y-190037571D02*
X391607523Y-190132809D01*
X391607523Y-190132809D02*
X391607523Y-190656619D01*
X391940857Y-189989952D02*
X392321809Y-189989952D01*
X392083714Y-189656619D02*
X392083714Y-190513761D01*
X392083714Y-190513761D02*
X392131333Y-190609000D01*
X392131333Y-190609000D02*
X392226571Y-190656619D01*
X392226571Y-190656619D02*
X392321809Y-190656619D01*
X392655143Y-190656619D02*
X392655143Y-189989952D01*
X392655143Y-189656619D02*
X392607524Y-189704238D01*
X392607524Y-189704238D02*
X392655143Y-189751857D01*
X392655143Y-189751857D02*
X392702762Y-189704238D01*
X392702762Y-189704238D02*
X392655143Y-189656619D01*
X392655143Y-189656619D02*
X392655143Y-189751857D01*
X393131333Y-189989952D02*
X393131333Y-190656619D01*
X393131333Y-190085190D02*
X393178952Y-190037571D01*
X393178952Y-190037571D02*
X393274190Y-189989952D01*
X393274190Y-189989952D02*
X393417047Y-189989952D01*
X393417047Y-189989952D02*
X393512285Y-190037571D01*
X393512285Y-190037571D02*
X393559904Y-190132809D01*
X393559904Y-190132809D02*
X393559904Y-190656619D01*
X394464666Y-189989952D02*
X394464666Y-190799476D01*
X394464666Y-190799476D02*
X394417047Y-190894714D01*
X394417047Y-190894714D02*
X394369428Y-190942333D01*
X394369428Y-190942333D02*
X394274190Y-190989952D01*
X394274190Y-190989952D02*
X394131333Y-190989952D01*
X394131333Y-190989952D02*
X394036095Y-190942333D01*
X394464666Y-190609000D02*
X394369428Y-190656619D01*
X394369428Y-190656619D02*
X394178952Y-190656619D01*
X394178952Y-190656619D02*
X394083714Y-190609000D01*
X394083714Y-190609000D02*
X394036095Y-190561380D01*
X394036095Y-190561380D02*
X393988476Y-190466142D01*
X393988476Y-190466142D02*
X393988476Y-190180428D01*
X393988476Y-190180428D02*
X394036095Y-190085190D01*
X394036095Y-190085190D02*
X394083714Y-190037571D01*
X394083714Y-190037571D02*
X394178952Y-189989952D01*
X394178952Y-189989952D02*
X394369428Y-189989952D01*
X394369428Y-189989952D02*
X394464666Y-190037571D01*
X394940857Y-190656619D02*
X394940857Y-189656619D01*
X394940857Y-190132809D02*
X395512285Y-190132809D01*
X395512285Y-190656619D02*
X395512285Y-189656619D01*
X396131333Y-190656619D02*
X396036095Y-190609000D01*
X396036095Y-190609000D02*
X395988476Y-190561380D01*
X395988476Y-190561380D02*
X395940857Y-190466142D01*
X395940857Y-190466142D02*
X395940857Y-190180428D01*
X395940857Y-190180428D02*
X395988476Y-190085190D01*
X395988476Y-190085190D02*
X396036095Y-190037571D01*
X396036095Y-190037571D02*
X396131333Y-189989952D01*
X396131333Y-189989952D02*
X396274190Y-189989952D01*
X396274190Y-189989952D02*
X396369428Y-190037571D01*
X396369428Y-190037571D02*
X396417047Y-190085190D01*
X396417047Y-190085190D02*
X396464666Y-190180428D01*
X396464666Y-190180428D02*
X396464666Y-190466142D01*
X396464666Y-190466142D02*
X396417047Y-190561380D01*
X396417047Y-190561380D02*
X396369428Y-190609000D01*
X396369428Y-190609000D02*
X396274190Y-190656619D01*
X396274190Y-190656619D02*
X396131333Y-190656619D01*
X397036095Y-190656619D02*
X396940857Y-190609000D01*
X396940857Y-190609000D02*
X396893238Y-190513761D01*
X396893238Y-190513761D02*
X396893238Y-189656619D01*
X397798000Y-190609000D02*
X397702762Y-190656619D01*
X397702762Y-190656619D02*
X397512286Y-190656619D01*
X397512286Y-190656619D02*
X397417048Y-190609000D01*
X397417048Y-190609000D02*
X397369429Y-190513761D01*
X397369429Y-190513761D02*
X397369429Y-190132809D01*
X397369429Y-190132809D02*
X397417048Y-190037571D01*
X397417048Y-190037571D02*
X397512286Y-189989952D01*
X397512286Y-189989952D02*
X397702762Y-189989952D01*
X397702762Y-189989952D02*
X397798000Y-190037571D01*
X397798000Y-190037571D02*
X397845619Y-190132809D01*
X397845619Y-190132809D02*
X397845619Y-190228047D01*
X397845619Y-190228047D02*
X397369429Y-190323285D01*
X398036096Y-190751857D02*
X398798000Y-190751857D01*
X399036096Y-190656619D02*
X399036096Y-189656619D01*
X399036096Y-189656619D02*
X399417048Y-189656619D01*
X399417048Y-189656619D02*
X399512286Y-189704238D01*
X399512286Y-189704238D02*
X399559905Y-189751857D01*
X399559905Y-189751857D02*
X399607524Y-189847095D01*
X399607524Y-189847095D02*
X399607524Y-189989952D01*
X399607524Y-189989952D02*
X399559905Y-190085190D01*
X399559905Y-190085190D02*
X399512286Y-190132809D01*
X399512286Y-190132809D02*
X399417048Y-190180428D01*
X399417048Y-190180428D02*
X399036096Y-190180428D01*
X400464667Y-190656619D02*
X400464667Y-190132809D01*
X400464667Y-190132809D02*
X400417048Y-190037571D01*
X400417048Y-190037571D02*
X400321810Y-189989952D01*
X400321810Y-189989952D02*
X400131334Y-189989952D01*
X400131334Y-189989952D02*
X400036096Y-190037571D01*
X400464667Y-190609000D02*
X400369429Y-190656619D01*
X400369429Y-190656619D02*
X400131334Y-190656619D01*
X400131334Y-190656619D02*
X400036096Y-190609000D01*
X400036096Y-190609000D02*
X399988477Y-190513761D01*
X399988477Y-190513761D02*
X399988477Y-190418523D01*
X399988477Y-190418523D02*
X400036096Y-190323285D01*
X400036096Y-190323285D02*
X400131334Y-190275666D01*
X400131334Y-190275666D02*
X400369429Y-190275666D01*
X400369429Y-190275666D02*
X400464667Y-190228047D01*
X401369429Y-190656619D02*
X401369429Y-189656619D01*
X401369429Y-190609000D02*
X401274191Y-190656619D01*
X401274191Y-190656619D02*
X401083715Y-190656619D01*
X401083715Y-190656619D02*
X400988477Y-190609000D01*
X400988477Y-190609000D02*
X400940858Y-190561380D01*
X400940858Y-190561380D02*
X400893239Y-190466142D01*
X400893239Y-190466142D02*
X400893239Y-190180428D01*
X400893239Y-190180428D02*
X400940858Y-190085190D01*
X400940858Y-190085190D02*
X400988477Y-190037571D01*
X400988477Y-190037571D02*
X401083715Y-189989952D01*
X401083715Y-189989952D02*
X401274191Y-189989952D01*
X401274191Y-189989952D02*
X401369429Y-190037571D01*
X394336095Y-187456619D02*
X394336095Y-186456619D01*
X394336095Y-186932809D02*
X394907523Y-186932809D01*
X394907523Y-187456619D02*
X394907523Y-186456619D01*
X395812285Y-186456619D02*
X395621809Y-186456619D01*
X395621809Y-186456619D02*
X395526571Y-186504238D01*
X395526571Y-186504238D02*
X395478952Y-186551857D01*
X395478952Y-186551857D02*
X395383714Y-186694714D01*
X395383714Y-186694714D02*
X395336095Y-186885190D01*
X395336095Y-186885190D02*
X395336095Y-187266142D01*
X395336095Y-187266142D02*
X395383714Y-187361380D01*
X395383714Y-187361380D02*
X395431333Y-187409000D01*
X395431333Y-187409000D02*
X395526571Y-187456619D01*
X395526571Y-187456619D02*
X395717047Y-187456619D01*
X395717047Y-187456619D02*
X395812285Y-187409000D01*
X395812285Y-187409000D02*
X395859904Y-187361380D01*
X395859904Y-187361380D02*
X395907523Y-187266142D01*
X395907523Y-187266142D02*
X395907523Y-187028047D01*
X395907523Y-187028047D02*
X395859904Y-186932809D01*
X395859904Y-186932809D02*
X395812285Y-186885190D01*
X395812285Y-186885190D02*
X395717047Y-186837571D01*
X395717047Y-186837571D02*
X395526571Y-186837571D01*
X395526571Y-186837571D02*
X395431333Y-186885190D01*
X395431333Y-186885190D02*
X395383714Y-186932809D01*
X395383714Y-186932809D02*
X395336095Y-187028047D01*
X213666071Y-198131369D02*
X213666071Y-197131369D01*
X213666071Y-197131369D02*
X213999404Y-197845654D01*
X213999404Y-197845654D02*
X214332737Y-197131369D01*
X214332737Y-197131369D02*
X214332737Y-198131369D01*
X214951785Y-198131369D02*
X214856547Y-198083750D01*
X214856547Y-198083750D02*
X214808928Y-198036130D01*
X214808928Y-198036130D02*
X214761309Y-197940892D01*
X214761309Y-197940892D02*
X214761309Y-197655178D01*
X214761309Y-197655178D02*
X214808928Y-197559940D01*
X214808928Y-197559940D02*
X214856547Y-197512321D01*
X214856547Y-197512321D02*
X214951785Y-197464702D01*
X214951785Y-197464702D02*
X215094642Y-197464702D01*
X215094642Y-197464702D02*
X215189880Y-197512321D01*
X215189880Y-197512321D02*
X215237499Y-197559940D01*
X215237499Y-197559940D02*
X215285118Y-197655178D01*
X215285118Y-197655178D02*
X215285118Y-197940892D01*
X215285118Y-197940892D02*
X215237499Y-198036130D01*
X215237499Y-198036130D02*
X215189880Y-198083750D01*
X215189880Y-198083750D02*
X215094642Y-198131369D01*
X215094642Y-198131369D02*
X214951785Y-198131369D01*
X216142261Y-197464702D02*
X216142261Y-198131369D01*
X215713690Y-197464702D02*
X215713690Y-197988511D01*
X215713690Y-197988511D02*
X215761309Y-198083750D01*
X215761309Y-198083750D02*
X215856547Y-198131369D01*
X215856547Y-198131369D02*
X215999404Y-198131369D01*
X215999404Y-198131369D02*
X216094642Y-198083750D01*
X216094642Y-198083750D02*
X216142261Y-198036130D01*
X216618452Y-197464702D02*
X216618452Y-198131369D01*
X216618452Y-197559940D02*
X216666071Y-197512321D01*
X216666071Y-197512321D02*
X216761309Y-197464702D01*
X216761309Y-197464702D02*
X216904166Y-197464702D01*
X216904166Y-197464702D02*
X216999404Y-197512321D01*
X216999404Y-197512321D02*
X217047023Y-197607559D01*
X217047023Y-197607559D02*
X217047023Y-198131369D01*
X217380357Y-197464702D02*
X217761309Y-197464702D01*
X217523214Y-197131369D02*
X217523214Y-197988511D01*
X217523214Y-197988511D02*
X217570833Y-198083750D01*
X217570833Y-198083750D02*
X217666071Y-198131369D01*
X217666071Y-198131369D02*
X217761309Y-198131369D01*
X218094643Y-198131369D02*
X218094643Y-197464702D01*
X218094643Y-197131369D02*
X218047024Y-197178988D01*
X218047024Y-197178988D02*
X218094643Y-197226607D01*
X218094643Y-197226607D02*
X218142262Y-197178988D01*
X218142262Y-197178988D02*
X218094643Y-197131369D01*
X218094643Y-197131369D02*
X218094643Y-197226607D01*
X218570833Y-197464702D02*
X218570833Y-198131369D01*
X218570833Y-197559940D02*
X218618452Y-197512321D01*
X218618452Y-197512321D02*
X218713690Y-197464702D01*
X218713690Y-197464702D02*
X218856547Y-197464702D01*
X218856547Y-197464702D02*
X218951785Y-197512321D01*
X218951785Y-197512321D02*
X218999404Y-197607559D01*
X218999404Y-197607559D02*
X218999404Y-198131369D01*
X219904166Y-197464702D02*
X219904166Y-198274226D01*
X219904166Y-198274226D02*
X219856547Y-198369464D01*
X219856547Y-198369464D02*
X219808928Y-198417083D01*
X219808928Y-198417083D02*
X219713690Y-198464702D01*
X219713690Y-198464702D02*
X219570833Y-198464702D01*
X219570833Y-198464702D02*
X219475595Y-198417083D01*
X219904166Y-198083750D02*
X219808928Y-198131369D01*
X219808928Y-198131369D02*
X219618452Y-198131369D01*
X219618452Y-198131369D02*
X219523214Y-198083750D01*
X219523214Y-198083750D02*
X219475595Y-198036130D01*
X219475595Y-198036130D02*
X219427976Y-197940892D01*
X219427976Y-197940892D02*
X219427976Y-197655178D01*
X219427976Y-197655178D02*
X219475595Y-197559940D01*
X219475595Y-197559940D02*
X219523214Y-197512321D01*
X219523214Y-197512321D02*
X219618452Y-197464702D01*
X219618452Y-197464702D02*
X219808928Y-197464702D01*
X219808928Y-197464702D02*
X219904166Y-197512321D01*
X220380357Y-198131369D02*
X220380357Y-197131369D01*
X220380357Y-197607559D02*
X220951785Y-197607559D01*
X220951785Y-198131369D02*
X220951785Y-197131369D01*
X221570833Y-198131369D02*
X221475595Y-198083750D01*
X221475595Y-198083750D02*
X221427976Y-198036130D01*
X221427976Y-198036130D02*
X221380357Y-197940892D01*
X221380357Y-197940892D02*
X221380357Y-197655178D01*
X221380357Y-197655178D02*
X221427976Y-197559940D01*
X221427976Y-197559940D02*
X221475595Y-197512321D01*
X221475595Y-197512321D02*
X221570833Y-197464702D01*
X221570833Y-197464702D02*
X221713690Y-197464702D01*
X221713690Y-197464702D02*
X221808928Y-197512321D01*
X221808928Y-197512321D02*
X221856547Y-197559940D01*
X221856547Y-197559940D02*
X221904166Y-197655178D01*
X221904166Y-197655178D02*
X221904166Y-197940892D01*
X221904166Y-197940892D02*
X221856547Y-198036130D01*
X221856547Y-198036130D02*
X221808928Y-198083750D01*
X221808928Y-198083750D02*
X221713690Y-198131369D01*
X221713690Y-198131369D02*
X221570833Y-198131369D01*
X222475595Y-198131369D02*
X222380357Y-198083750D01*
X222380357Y-198083750D02*
X222332738Y-197988511D01*
X222332738Y-197988511D02*
X222332738Y-197131369D01*
X223237500Y-198083750D02*
X223142262Y-198131369D01*
X223142262Y-198131369D02*
X222951786Y-198131369D01*
X222951786Y-198131369D02*
X222856548Y-198083750D01*
X222856548Y-198083750D02*
X222808929Y-197988511D01*
X222808929Y-197988511D02*
X222808929Y-197607559D01*
X222808929Y-197607559D02*
X222856548Y-197512321D01*
X222856548Y-197512321D02*
X222951786Y-197464702D01*
X222951786Y-197464702D02*
X223142262Y-197464702D01*
X223142262Y-197464702D02*
X223237500Y-197512321D01*
X223237500Y-197512321D02*
X223285119Y-197607559D01*
X223285119Y-197607559D02*
X223285119Y-197702797D01*
X223285119Y-197702797D02*
X222808929Y-197798035D01*
X223475596Y-198226607D02*
X224237500Y-198226607D01*
X224475596Y-198131369D02*
X224475596Y-197131369D01*
X224475596Y-197131369D02*
X224856548Y-197131369D01*
X224856548Y-197131369D02*
X224951786Y-197178988D01*
X224951786Y-197178988D02*
X224999405Y-197226607D01*
X224999405Y-197226607D02*
X225047024Y-197321845D01*
X225047024Y-197321845D02*
X225047024Y-197464702D01*
X225047024Y-197464702D02*
X224999405Y-197559940D01*
X224999405Y-197559940D02*
X224951786Y-197607559D01*
X224951786Y-197607559D02*
X224856548Y-197655178D01*
X224856548Y-197655178D02*
X224475596Y-197655178D01*
X225904167Y-198131369D02*
X225904167Y-197607559D01*
X225904167Y-197607559D02*
X225856548Y-197512321D01*
X225856548Y-197512321D02*
X225761310Y-197464702D01*
X225761310Y-197464702D02*
X225570834Y-197464702D01*
X225570834Y-197464702D02*
X225475596Y-197512321D01*
X225904167Y-198083750D02*
X225808929Y-198131369D01*
X225808929Y-198131369D02*
X225570834Y-198131369D01*
X225570834Y-198131369D02*
X225475596Y-198083750D01*
X225475596Y-198083750D02*
X225427977Y-197988511D01*
X225427977Y-197988511D02*
X225427977Y-197893273D01*
X225427977Y-197893273D02*
X225475596Y-197798035D01*
X225475596Y-197798035D02*
X225570834Y-197750416D01*
X225570834Y-197750416D02*
X225808929Y-197750416D01*
X225808929Y-197750416D02*
X225904167Y-197702797D01*
X226808929Y-198131369D02*
X226808929Y-197131369D01*
X226808929Y-198083750D02*
X226713691Y-198131369D01*
X226713691Y-198131369D02*
X226523215Y-198131369D01*
X226523215Y-198131369D02*
X226427977Y-198083750D01*
X226427977Y-198083750D02*
X226380358Y-198036130D01*
X226380358Y-198036130D02*
X226332739Y-197940892D01*
X226332739Y-197940892D02*
X226332739Y-197655178D01*
X226332739Y-197655178D02*
X226380358Y-197559940D01*
X226380358Y-197559940D02*
X226427977Y-197512321D01*
X226427977Y-197512321D02*
X226523215Y-197464702D01*
X226523215Y-197464702D02*
X226713691Y-197464702D01*
X226713691Y-197464702D02*
X226808929Y-197512321D01*
X219775595Y-194931369D02*
X219775595Y-193931369D01*
X219775595Y-194407559D02*
X220347023Y-194407559D01*
X220347023Y-194931369D02*
X220347023Y-193931369D01*
X221347023Y-194931369D02*
X220775595Y-194931369D01*
X221061309Y-194931369D02*
X221061309Y-193931369D01*
X221061309Y-193931369D02*
X220966071Y-194074226D01*
X220966071Y-194074226D02*
X220870833Y-194169464D01*
X220870833Y-194169464D02*
X220775595Y-194217083D01*
X206790619Y-249778287D02*
X206314428Y-250111620D01*
X206790619Y-250349715D02*
X205790619Y-250349715D01*
X205790619Y-250349715D02*
X205790619Y-249968763D01*
X205790619Y-249968763D02*
X205838238Y-249873525D01*
X205838238Y-249873525D02*
X205885857Y-249825906D01*
X205885857Y-249825906D02*
X205981095Y-249778287D01*
X205981095Y-249778287D02*
X206123952Y-249778287D01*
X206123952Y-249778287D02*
X206219190Y-249825906D01*
X206219190Y-249825906D02*
X206266809Y-249873525D01*
X206266809Y-249873525D02*
X206314428Y-249968763D01*
X206314428Y-249968763D02*
X206314428Y-250349715D01*
X206790619Y-249206858D02*
X206743000Y-249302096D01*
X206743000Y-249302096D02*
X206695380Y-249349715D01*
X206695380Y-249349715D02*
X206600142Y-249397334D01*
X206600142Y-249397334D02*
X206314428Y-249397334D01*
X206314428Y-249397334D02*
X206219190Y-249349715D01*
X206219190Y-249349715D02*
X206171571Y-249302096D01*
X206171571Y-249302096D02*
X206123952Y-249206858D01*
X206123952Y-249206858D02*
X206123952Y-249064001D01*
X206123952Y-249064001D02*
X206171571Y-248968763D01*
X206171571Y-248968763D02*
X206219190Y-248921144D01*
X206219190Y-248921144D02*
X206314428Y-248873525D01*
X206314428Y-248873525D02*
X206600142Y-248873525D01*
X206600142Y-248873525D02*
X206695380Y-248921144D01*
X206695380Y-248921144D02*
X206743000Y-248968763D01*
X206743000Y-248968763D02*
X206790619Y-249064001D01*
X206790619Y-249064001D02*
X206790619Y-249206858D01*
X206123952Y-248587810D02*
X206123952Y-248206858D01*
X205790619Y-248444953D02*
X206647761Y-248444953D01*
X206647761Y-248444953D02*
X206743000Y-248397334D01*
X206743000Y-248397334D02*
X206790619Y-248302096D01*
X206790619Y-248302096D02*
X206790619Y-248206858D01*
X206790619Y-247444953D02*
X206266809Y-247444953D01*
X206266809Y-247444953D02*
X206171571Y-247492572D01*
X206171571Y-247492572D02*
X206123952Y-247587810D01*
X206123952Y-247587810D02*
X206123952Y-247778286D01*
X206123952Y-247778286D02*
X206171571Y-247873524D01*
X206743000Y-247444953D02*
X206790619Y-247540191D01*
X206790619Y-247540191D02*
X206790619Y-247778286D01*
X206790619Y-247778286D02*
X206743000Y-247873524D01*
X206743000Y-247873524D02*
X206647761Y-247921143D01*
X206647761Y-247921143D02*
X206552523Y-247921143D01*
X206552523Y-247921143D02*
X206457285Y-247873524D01*
X206457285Y-247873524D02*
X206409666Y-247778286D01*
X206409666Y-247778286D02*
X206409666Y-247540191D01*
X206409666Y-247540191D02*
X206362047Y-247444953D01*
X206790619Y-246968762D02*
X206123952Y-246968762D01*
X206314428Y-246968762D02*
X206219190Y-246921143D01*
X206219190Y-246921143D02*
X206171571Y-246873524D01*
X206171571Y-246873524D02*
X206123952Y-246778286D01*
X206123952Y-246778286D02*
X206123952Y-246683048D01*
X206123952Y-246444952D02*
X206790619Y-246206857D01*
X206123952Y-245968762D02*
X206790619Y-246206857D01*
X206790619Y-246206857D02*
X207028714Y-246302095D01*
X207028714Y-246302095D02*
X207076333Y-246349714D01*
X207076333Y-246349714D02*
X207123952Y-246444952D01*
X206885857Y-245825905D02*
X206885857Y-245064000D01*
X206266809Y-244825904D02*
X206266809Y-244492571D01*
X206790619Y-244349714D02*
X206790619Y-244825904D01*
X206790619Y-244825904D02*
X205790619Y-244825904D01*
X205790619Y-244825904D02*
X205790619Y-244349714D01*
X206123952Y-243921142D02*
X206790619Y-243921142D01*
X206219190Y-243921142D02*
X206171571Y-243873523D01*
X206171571Y-243873523D02*
X206123952Y-243778285D01*
X206123952Y-243778285D02*
X206123952Y-243635428D01*
X206123952Y-243635428D02*
X206171571Y-243540190D01*
X206171571Y-243540190D02*
X206266809Y-243492571D01*
X206266809Y-243492571D02*
X206790619Y-243492571D01*
X206743000Y-242587809D02*
X206790619Y-242683047D01*
X206790619Y-242683047D02*
X206790619Y-242873523D01*
X206790619Y-242873523D02*
X206743000Y-242968761D01*
X206743000Y-242968761D02*
X206695380Y-243016380D01*
X206695380Y-243016380D02*
X206600142Y-243063999D01*
X206600142Y-243063999D02*
X206314428Y-243063999D01*
X206314428Y-243063999D02*
X206219190Y-243016380D01*
X206219190Y-243016380D02*
X206171571Y-242968761D01*
X206171571Y-242968761D02*
X206123952Y-242873523D01*
X206123952Y-242873523D02*
X206123952Y-242683047D01*
X206123952Y-242683047D02*
X206171571Y-242587809D01*
X206790619Y-242016380D02*
X206743000Y-242111618D01*
X206743000Y-242111618D02*
X206695380Y-242159237D01*
X206695380Y-242159237D02*
X206600142Y-242206856D01*
X206600142Y-242206856D02*
X206314428Y-242206856D01*
X206314428Y-242206856D02*
X206219190Y-242159237D01*
X206219190Y-242159237D02*
X206171571Y-242111618D01*
X206171571Y-242111618D02*
X206123952Y-242016380D01*
X206123952Y-242016380D02*
X206123952Y-241873523D01*
X206123952Y-241873523D02*
X206171571Y-241778285D01*
X206171571Y-241778285D02*
X206219190Y-241730666D01*
X206219190Y-241730666D02*
X206314428Y-241683047D01*
X206314428Y-241683047D02*
X206600142Y-241683047D01*
X206600142Y-241683047D02*
X206695380Y-241730666D01*
X206695380Y-241730666D02*
X206743000Y-241778285D01*
X206743000Y-241778285D02*
X206790619Y-241873523D01*
X206790619Y-241873523D02*
X206790619Y-242016380D01*
X206790619Y-240825904D02*
X205790619Y-240825904D01*
X206743000Y-240825904D02*
X206790619Y-240921142D01*
X206790619Y-240921142D02*
X206790619Y-241111618D01*
X206790619Y-241111618D02*
X206743000Y-241206856D01*
X206743000Y-241206856D02*
X206695380Y-241254475D01*
X206695380Y-241254475D02*
X206600142Y-241302094D01*
X206600142Y-241302094D02*
X206314428Y-241302094D01*
X206314428Y-241302094D02*
X206219190Y-241254475D01*
X206219190Y-241254475D02*
X206171571Y-241206856D01*
X206171571Y-241206856D02*
X206123952Y-241111618D01*
X206123952Y-241111618D02*
X206123952Y-240921142D01*
X206123952Y-240921142D02*
X206171571Y-240825904D01*
X206743000Y-239968761D02*
X206790619Y-240063999D01*
X206790619Y-240063999D02*
X206790619Y-240254475D01*
X206790619Y-240254475D02*
X206743000Y-240349713D01*
X206743000Y-240349713D02*
X206647761Y-240397332D01*
X206647761Y-240397332D02*
X206266809Y-240397332D01*
X206266809Y-240397332D02*
X206171571Y-240349713D01*
X206171571Y-240349713D02*
X206123952Y-240254475D01*
X206123952Y-240254475D02*
X206123952Y-240063999D01*
X206123952Y-240063999D02*
X206171571Y-239968761D01*
X206171571Y-239968761D02*
X206266809Y-239921142D01*
X206266809Y-239921142D02*
X206362047Y-239921142D01*
X206362047Y-239921142D02*
X206457285Y-240397332D01*
X206790619Y-239492570D02*
X206123952Y-239492570D01*
X206314428Y-239492570D02*
X206219190Y-239444951D01*
X206219190Y-239444951D02*
X206171571Y-239397332D01*
X206171571Y-239397332D02*
X206123952Y-239302094D01*
X206123952Y-239302094D02*
X206123952Y-239206856D01*
X206885857Y-239111618D02*
X206885857Y-238349713D01*
X206743000Y-238159236D02*
X206790619Y-238016379D01*
X206790619Y-238016379D02*
X206790619Y-237778284D01*
X206790619Y-237778284D02*
X206743000Y-237683046D01*
X206743000Y-237683046D02*
X206695380Y-237635427D01*
X206695380Y-237635427D02*
X206600142Y-237587808D01*
X206600142Y-237587808D02*
X206504904Y-237587808D01*
X206504904Y-237587808D02*
X206409666Y-237635427D01*
X206409666Y-237635427D02*
X206362047Y-237683046D01*
X206362047Y-237683046D02*
X206314428Y-237778284D01*
X206314428Y-237778284D02*
X206266809Y-237968760D01*
X206266809Y-237968760D02*
X206219190Y-238063998D01*
X206219190Y-238063998D02*
X206171571Y-238111617D01*
X206171571Y-238111617D02*
X206076333Y-238159236D01*
X206076333Y-238159236D02*
X205981095Y-238159236D01*
X205981095Y-238159236D02*
X205885857Y-238111617D01*
X205885857Y-238111617D02*
X205838238Y-238063998D01*
X205838238Y-238063998D02*
X205790619Y-237968760D01*
X205790619Y-237968760D02*
X205790619Y-237730665D01*
X205790619Y-237730665D02*
X205838238Y-237587808D01*
X206123952Y-237254474D02*
X206790619Y-237063998D01*
X206790619Y-237063998D02*
X206314428Y-236873522D01*
X206314428Y-236873522D02*
X206790619Y-236683046D01*
X206790619Y-236683046D02*
X206123952Y-236492570D01*
X206790619Y-236111617D02*
X206123952Y-236111617D01*
X205790619Y-236111617D02*
X205838238Y-236159236D01*
X205838238Y-236159236D02*
X205885857Y-236111617D01*
X205885857Y-236111617D02*
X205838238Y-236063998D01*
X205838238Y-236063998D02*
X205790619Y-236111617D01*
X205790619Y-236111617D02*
X205885857Y-236111617D01*
X206123952Y-235778284D02*
X206123952Y-235397332D01*
X205790619Y-235635427D02*
X206647761Y-235635427D01*
X206647761Y-235635427D02*
X206743000Y-235587808D01*
X206743000Y-235587808D02*
X206790619Y-235492570D01*
X206790619Y-235492570D02*
X206790619Y-235397332D01*
X206743000Y-234635427D02*
X206790619Y-234730665D01*
X206790619Y-234730665D02*
X206790619Y-234921141D01*
X206790619Y-234921141D02*
X206743000Y-235016379D01*
X206743000Y-235016379D02*
X206695380Y-235063998D01*
X206695380Y-235063998D02*
X206600142Y-235111617D01*
X206600142Y-235111617D02*
X206314428Y-235111617D01*
X206314428Y-235111617D02*
X206219190Y-235063998D01*
X206219190Y-235063998D02*
X206171571Y-235016379D01*
X206171571Y-235016379D02*
X206123952Y-234921141D01*
X206123952Y-234921141D02*
X206123952Y-234730665D01*
X206123952Y-234730665D02*
X206171571Y-234635427D01*
X206790619Y-234206855D02*
X205790619Y-234206855D01*
X206790619Y-233778284D02*
X206266809Y-233778284D01*
X206266809Y-233778284D02*
X206171571Y-233825903D01*
X206171571Y-233825903D02*
X206123952Y-233921141D01*
X206123952Y-233921141D02*
X206123952Y-234063998D01*
X206123952Y-234063998D02*
X206171571Y-234159236D01*
X206171571Y-234159236D02*
X206219190Y-234206855D01*
X202643000Y-240178285D02*
X202690619Y-240035428D01*
X202690619Y-240035428D02*
X202690619Y-239797333D01*
X202690619Y-239797333D02*
X202643000Y-239702095D01*
X202643000Y-239702095D02*
X202595380Y-239654476D01*
X202595380Y-239654476D02*
X202500142Y-239606857D01*
X202500142Y-239606857D02*
X202404904Y-239606857D01*
X202404904Y-239606857D02*
X202309666Y-239654476D01*
X202309666Y-239654476D02*
X202262047Y-239702095D01*
X202262047Y-239702095D02*
X202214428Y-239797333D01*
X202214428Y-239797333D02*
X202166809Y-239987809D01*
X202166809Y-239987809D02*
X202119190Y-240083047D01*
X202119190Y-240083047D02*
X202071571Y-240130666D01*
X202071571Y-240130666D02*
X201976333Y-240178285D01*
X201976333Y-240178285D02*
X201881095Y-240178285D01*
X201881095Y-240178285D02*
X201785857Y-240130666D01*
X201785857Y-240130666D02*
X201738238Y-240083047D01*
X201738238Y-240083047D02*
X201690619Y-239987809D01*
X201690619Y-239987809D02*
X201690619Y-239749714D01*
X201690619Y-239749714D02*
X201738238Y-239606857D01*
X201690619Y-239273523D02*
X202690619Y-239035428D01*
X202690619Y-239035428D02*
X201976333Y-238844952D01*
X201976333Y-238844952D02*
X202690619Y-238654476D01*
X202690619Y-238654476D02*
X201690619Y-238416381D01*
X202785857Y-238273524D02*
X202785857Y-237511619D01*
X201785857Y-237321142D02*
X201738238Y-237273523D01*
X201738238Y-237273523D02*
X201690619Y-237178285D01*
X201690619Y-237178285D02*
X201690619Y-236940190D01*
X201690619Y-236940190D02*
X201738238Y-236844952D01*
X201738238Y-236844952D02*
X201785857Y-236797333D01*
X201785857Y-236797333D02*
X201881095Y-236749714D01*
X201881095Y-236749714D02*
X201976333Y-236749714D01*
X201976333Y-236749714D02*
X202119190Y-236797333D01*
X202119190Y-236797333D02*
X202690619Y-237368761D01*
X202690619Y-237368761D02*
X202690619Y-236749714D01*
X396284809Y-178419333D02*
X396284809Y-178752666D01*
X396808619Y-178752666D02*
X395808619Y-178752666D01*
X395808619Y-178752666D02*
X395808619Y-178276476D01*
X396808619Y-177371714D02*
X396808619Y-177943142D01*
X396808619Y-177657428D02*
X395808619Y-177657428D01*
X395808619Y-177657428D02*
X395951476Y-177752666D01*
X395951476Y-177752666D02*
X396046714Y-177847904D01*
X396046714Y-177847904D02*
X396094333Y-177943142D01*
D11*
X425275500Y-184944000D02*
G75*
G03*
X425275500Y-184944000I-3000000J0D01*
G01*
X428075500Y-178944000D02*
X428075500Y-190944000D01*
X416475500Y-178944000D02*
X428075500Y-178944000D01*
X419275500Y-184944000D02*
X425275500Y-184944000D01*
X422275500Y-187944000D02*
X422275500Y-181944000D01*
X416475500Y-189944000D02*
X416475500Y-178944000D01*
X428075500Y-190944000D02*
X417575500Y-190944000D01*
X417575500Y-190944000D02*
X416475500Y-189944000D01*
X204228000Y-236064000D02*
X204228000Y-248064000D01*
X192628000Y-236064000D02*
X204228000Y-236064000D01*
X195428000Y-242064000D02*
X201428000Y-242064000D01*
X198428000Y-245064000D02*
X198428000Y-239064000D01*
X192628000Y-247064000D02*
X192628000Y-236064000D01*
X204228000Y-248064000D02*
X193728000Y-248064000D01*
X193728000Y-248064000D02*
X192628000Y-247064000D01*
M02*
