M48
; DRILL file {KiCad 7.0.1} date Sat Aug  5 15:02:14 2023
; FORMAT={-:-/ absolute / inch / decimal}
; #@! TF.CreationDate,2023-08-05T15:02:14+05:30
; #@! TF.GenerationSoftware,Kicad,Pcbnew,7.0.1
; #@! TF.FileFunction,Plated,1,2,PTH
FMAT,2
INCH
; #@! TA.AperFunction,Plated,PTH,ViaDrill
T1C0.0157
; #@! TA.AperFunction,Plated,PTH,ComponentDrill
T2C0.0236
; #@! TA.AperFunction,Plated,PTH,ComponentDrill
T3C0.0394
; #@! TA.AperFunction,Plated,PTH,ComponentDrill
T4C0.0579
; #@! TA.AperFunction,Plated,PTH,ComponentDrill
T5C0.0591
; #@! TA.AperFunction,Plated,PTH,ComponentDrill
T6C0.0866
%
G90
G05
T1
X7.5975Y-9.8113
X8.0125Y-9.8363
X8.1475Y-9.5963
X8.1825Y-8.2713
X8.2325Y-8.6863
X8.8525Y-9.5963
X9.6075Y-9.5963
X10.3525Y-9.6013
X10.9775Y-9.6663
X11.3275Y-8.1313
X11.3275Y-8.1913
X11.4675Y-8.5068
X11.5525Y-7.8063
X11.6621Y-9.6498
X11.6675Y-8.2913
X11.6975Y-8.9563
X11.7301Y-7.9713
X11.7475Y-8.8713
X11.7525Y-8.3513
X11.7575Y-8.4013
X11.7612Y-9.8085
X11.7725Y-8.6213
X11.7775Y-7.7813
X11.7825Y-8.1113
X11.7825Y-8.2013
X11.8024Y-7.5063
X11.8118Y-9.8656
X11.8125Y-9.8085
X11.8275Y-9.0213
X11.8375Y-8.6763
X11.852Y-8.4774
X11.8522Y-8.5256
X11.8575Y-7.1363
X11.8575Y-8.3413
X11.8575Y-8.3827
X11.8575Y-9.5913
X11.863Y-7.0918
X11.8675Y-8.4413
X11.8747Y-7.8929
X11.8854Y-6.9742
X11.8975Y-8.5563
X11.9125Y-8.26
X12.5375Y-8.3213
X12.5625Y-7.4613
X12.5625Y-7.6713
X12.564Y-7.5413
X12.564Y-7.5913
X12.564Y-8.0413
X12.5725Y-8.6363
X12.5725Y-8.7263
X12.6075Y-8.6913
X12.6153Y-8.109
X12.621Y-7.5413
X12.6825Y-8.1913
X12.6925Y-7.5113
X12.6925Y-7.5913
X12.7775Y-7.5913
X12.9375Y-9.0263
X12.9725Y-8.9713
X13.2682Y-8.0713
X13.3075Y-8.0713
X13.4225Y-8.3213
X14.2925Y-7.6163
X14.4375Y-7.4663
X14.6225Y-9.8463
X14.8175Y-8.9513
X14.8875Y-7.2013
X15.1125Y-7.6313
X15.1875Y-7.4413
X15.2425Y-7.2613
X15.2775Y-7.1613
X15.2775Y-7.6213
X15.3725Y-7.0913
X15.3761Y-6.9541
X15.45Y-7.0863
X15.5069Y-7.1844
X15.5225Y-7.1413
X15.5275Y-7.0113
X15.6016Y-7.1987
X15.6543Y-7.1667
X15.755Y-7.0487
X15.8329Y-7.0459
X16.1525Y-7.1213
T3
X7.7137Y-9.2545
X7.7137Y-9.8254
X7.8121Y-9.8254
X7.9106Y-9.2545
X7.9106Y-9.8254
X8.13Y-8.3068
X8.13Y-8.4068
X8.13Y-8.5068
X16.5266Y-7.0057
X16.5266Y-7.5765
X16.625Y-7.5765
X16.7234Y-7.0057
X16.7234Y-7.5765
T4
X7.6625Y-7.1813
X7.6625Y-7.9313
X7.6625Y-8.6813
X7.6625Y-9.4313
X7.9125Y-7.0813
X7.9125Y-7.8313
X7.9125Y-8.5813
X7.9125Y-9.3313
X8.4125Y-7.1813
X8.4125Y-7.9313
X8.4125Y-8.6813
X8.4125Y-9.4313
X8.6625Y-7.0813
X8.6625Y-7.8313
X8.6625Y-8.5813
X8.6625Y-9.3313
X9.1625Y-7.1813
X9.1625Y-7.9313
X9.1625Y-8.6813
X9.1625Y-9.4313
X9.4125Y-7.0813
X9.4125Y-7.8313
X9.4125Y-8.5813
X9.4125Y-9.3313
X9.9125Y-7.1813
X9.9125Y-7.9313
X9.9125Y-8.6813
X9.9125Y-9.4313
X10.1625Y-7.0813
X10.1625Y-7.8313
X10.1625Y-8.5813
X10.1625Y-9.3313
X10.6625Y-7.1813
X10.6625Y-7.9313
X10.6625Y-8.6813
X10.6625Y-9.4313
X10.9125Y-7.0813
X10.9125Y-7.8313
X10.9125Y-8.5813
X10.9125Y-9.3313
X11.0375Y-9.4313
X11.2875Y-9.3313
X11.4125Y-7.1813
X11.4125Y-7.9313
X11.4125Y-8.6813
X11.4125Y-9.4313
X11.6625Y-7.0813
X11.6625Y-7.8313
X11.6625Y-8.5813
X11.6625Y-9.3313
X12.725Y-7.1813
X12.725Y-7.9313
X12.725Y-8.6813
X12.725Y-9.4313
X12.975Y-7.0813
X12.975Y-7.8313
X12.975Y-8.5813
X12.975Y-9.3313
X13.1Y-9.4313
X13.35Y-9.3313
X13.475Y-7.1813
X13.475Y-7.9313
X13.475Y-8.6813
X13.475Y-9.4313
X13.725Y-7.0813
X13.725Y-7.8313
X13.725Y-8.5813
X13.725Y-9.3313
X14.225Y-7.1813
X14.225Y-7.9313
X14.225Y-8.6813
X14.225Y-9.4313
X14.475Y-7.0813
X14.475Y-7.8313
X14.475Y-8.5813
X14.475Y-9.3313
X14.9746Y-7.9312
X14.975Y-7.1813
X14.975Y-8.6813
X14.975Y-9.4313
X15.2246Y-7.8312
X15.225Y-7.0813
X15.225Y-8.5813
X15.225Y-9.3313
X15.725Y-7.9313
X15.725Y-8.6813
X15.725Y-9.4313
X15.775Y-7.4813
X15.975Y-7.8313
X15.975Y-8.5813
X15.975Y-9.3313
X16.025Y-7.3813
X16.475Y-7.1813
X16.475Y-7.9313
X16.475Y-8.6813
X16.475Y-9.4313
X16.725Y-7.0813
X16.725Y-7.8313
X16.725Y-8.5813
X16.725Y-9.3313
T6
X8.6078Y-9.0253
X8.6708Y-7.6562
X10.4562Y-9.4761
X11.348Y-7.0963
X11.348Y-9.7163
X11.6708Y-7.6563
X12.8775Y-8.4063
X13.0895Y-7.0963
X13.0895Y-9.7163
X15.5432Y-7.362
T2
G00X15.6581Y-6.9256
M15
G01X15.6581Y-6.9492
M16
G05
G00X15.6581Y-7.0803
M15
G01X15.6581Y-7.1236
M16
G05
G00X15.9982Y-6.9256
M15
G01X15.9982Y-6.9492
M16
G05
G00X15.9982Y-7.0803
M15
G01X15.9982Y-7.1236
M16
G05
T5
G00X7.5917Y-9.5557
M15
G01X7.5917Y-9.5045
M16
G05
G00X8.0326Y-9.5557
M15
G01X8.0326Y-9.5045
M16
G05
G00X16.4045Y-7.3069
M15
G01X16.4045Y-7.2557
M16
G05
G00X16.8455Y-7.3069
M15
G01X16.8455Y-7.2557
M16
G05
T0
M30
