M48
; DRILL file {KiCad 7.0.1} date Sat Aug  5 15:02:14 2023
; FORMAT={-:-/ absolute / inch / decimal}
; #@! TF.CreationDate,2023-08-05T15:02:14+05:30
; #@! TF.GenerationSoftware,Kicad,Pcbnew,7.0.1
; #@! TF.FileFunction,NonPlated,1,2,NPTH
FMAT,2
INCH
; #@! TA.AperFunction,NonPlated,NPTH,ComponentDrill
T1C0.0256
; #@! TA.AperFunction,NonPlated,NPTH,ComponentDrill
T2C0.0689
; #@! TA.AperFunction,NonPlated,NPTH,ComponentDrill
T3C0.1200
; #@! TA.AperFunction,NonPlated,NPTH,ComponentDrill
T4C0.1570
%
G90
G05
T1
X15.7144Y-7.0811
X15.9419Y-7.0811
T2
X7.6125Y-7.2813
X7.6125Y-8.0313
X7.6125Y-8.7813
X7.6125Y-9.5313
X8.0125Y-7.2813
X8.0125Y-8.0313
X8.0125Y-8.7813
X8.0125Y-9.5313
X8.3625Y-7.2813
X8.3625Y-8.0313
X8.3625Y-8.7813
X8.3625Y-9.5313
X8.7625Y-7.2813
X8.7625Y-8.0313
X8.7625Y-8.7813
X8.7625Y-9.5313
X9.1125Y-7.2813
X9.1125Y-8.0313
X9.1125Y-8.7813
X9.1125Y-9.5313
X9.5125Y-7.2813
X9.5125Y-8.0313
X9.5125Y-8.7813
X9.5125Y-9.5313
X9.8625Y-7.2813
X9.8625Y-8.0313
X9.8625Y-8.7813
X9.8625Y-9.5313
X10.2625Y-7.2813
X10.2625Y-8.0313
X10.2625Y-8.7813
X10.2625Y-9.5313
X10.6125Y-7.2813
X10.6125Y-8.0313
X10.6125Y-8.7813
X10.6125Y-9.5313
X10.9875Y-9.5313
X11.0125Y-7.2813
X11.0125Y-8.0313
X11.0125Y-8.7813
X11.0125Y-9.5313
X11.3625Y-7.2813
X11.3625Y-8.0313
X11.3625Y-8.7813
X11.3625Y-9.5313
X11.3875Y-9.5313
X11.7625Y-7.2813
X11.7625Y-8.0313
X11.7625Y-8.7813
X11.7625Y-9.5313
X12.675Y-7.2813
X12.675Y-8.0313
X12.675Y-8.7813
X12.675Y-9.5313
X13.05Y-9.5313
X13.075Y-7.2813
X13.075Y-8.0313
X13.075Y-8.7813
X13.075Y-9.5313
X13.425Y-7.2813
X13.425Y-8.0313
X13.425Y-8.7813
X13.425Y-9.5313
X13.45Y-9.5313
X13.825Y-7.2813
X13.825Y-8.0313
X13.825Y-8.7813
X13.825Y-9.5313
X14.175Y-7.2813
X14.175Y-8.0313
X14.175Y-8.7813
X14.175Y-9.5313
X14.575Y-7.2813
X14.575Y-8.0313
X14.575Y-8.7813
X14.575Y-9.5313
X14.9246Y-8.0312
X14.925Y-7.2813
X14.925Y-8.7813
X14.925Y-9.5313
X15.3246Y-8.0312
X15.325Y-7.2813
X15.325Y-8.7813
X15.325Y-9.5313
X15.675Y-7.2813
X15.675Y-8.0313
X15.675Y-8.7813
X15.675Y-9.5313
X16.075Y-7.2813
X16.075Y-8.0313
X16.075Y-8.7813
X16.075Y-9.5313
X16.425Y-7.2813
X16.425Y-8.0313
X16.425Y-8.7813
X16.425Y-9.5313
X16.825Y-7.2813
X16.825Y-8.0313
X16.825Y-8.7813
X16.825Y-9.5313
T3
X10.7188Y-9.8063
X11.6563Y-9.8063
X12.7813Y-9.8063
X13.7188Y-9.8063
T4
X7.8125Y-7.2813
X7.8125Y-8.0313
X7.8125Y-8.7813
X7.8125Y-9.5313
X8.5625Y-7.2813
X8.5625Y-8.0313
X8.5625Y-8.7813
X8.5625Y-9.5313
X9.3125Y-7.2813
X9.3125Y-8.0313
X9.3125Y-8.7813
X9.3125Y-9.5313
X10.0625Y-7.2813
X10.0625Y-8.0313
X10.0625Y-8.7813
X10.0625Y-9.5313
X10.7188Y-9.2063
X10.8125Y-7.2813
X10.8125Y-8.0313
X10.8125Y-8.7813
X10.8125Y-9.5313
X11.1875Y-9.5313
X11.5625Y-7.2813
X11.5625Y-8.0313
X11.5625Y-8.7813
X11.5625Y-9.5313
X11.6563Y-9.2063
X12.7813Y-9.2063
X12.875Y-7.2813
X12.875Y-8.0313
X12.875Y-8.7813
X12.875Y-9.5313
X13.25Y-9.5313
X13.625Y-7.2813
X13.625Y-8.0313
X13.625Y-8.7813
X13.625Y-9.5313
X13.7188Y-9.2063
X14.375Y-7.2813
X14.375Y-8.0313
X14.375Y-8.7813
X14.375Y-9.5313
X15.1246Y-8.0312
X15.125Y-7.2813
X15.125Y-8.7813
X15.125Y-9.5313
X15.875Y-7.2813
X15.875Y-8.0313
X15.875Y-8.7813
X15.875Y-9.5313
X16.625Y-7.2813
X16.625Y-8.0313
X16.625Y-8.7813
X16.625Y-9.5313
T0
M30
