G04 #@! TF.GenerationSoftware,KiCad,Pcbnew,7.0.1*
G04 #@! TF.CreationDate,2023-08-05T15:02:17+05:30*
G04 #@! TF.ProjectId,omni,6f6d6e69-2e6b-4696-9361-645f70636258,rev?*
G04 #@! TF.SameCoordinates,Original*
G04 #@! TF.FileFunction,Soldermask,Top*
G04 #@! TF.FilePolarity,Negative*
%FSLAX46Y46*%
G04 Gerber Fmt 4.6, Leading zero omitted, Abs format (unit mm)*
G04 Created by KiCad (PCBNEW 7.0.1) date 2023-08-05 15:02:17*
%MOMM*%
%LPD*%
G01*
G04 APERTURE LIST*
%ADD10C,1.750000*%
%ADD11C,3.987800*%
%ADD12C,4.400000*%
%ADD13C,2.000000*%
%ADD14R,2.000000X3.200000*%
%ADD15R,2.000000X2.000000*%
%ADD16C,3.048000*%
%ADD17C,0.650000*%
%ADD18O,1.000000X1.600000*%
%ADD19O,1.000000X2.100000*%
%ADD20R,1.700000X1.700000*%
%ADD21O,1.700000X1.700000*%
G04 APERTURE END LIST*
D10*
X288608000Y-242094000D03*
D11*
X293688000Y-242094000D03*
D10*
X298768000Y-242094000D03*
D12*
X288240000Y-246793000D03*
X332473500Y-246793000D03*
X332473500Y-180245000D03*
X288240000Y-180245000D03*
D10*
X417195500Y-242094000D03*
D11*
X422275500Y-242094000D03*
D10*
X427355500Y-242094000D03*
X250508000Y-242094000D03*
D11*
X255588000Y-242094000D03*
D10*
X260668000Y-242094000D03*
X212408000Y-223044000D03*
D11*
X217488000Y-223044000D03*
D10*
X222568000Y-223044000D03*
X398145500Y-223044000D03*
D11*
X403225500Y-223044000D03*
D10*
X408305500Y-223044000D03*
X321945500Y-223044000D03*
D11*
X327025500Y-223044000D03*
D10*
X332105500Y-223044000D03*
X250508000Y-223044000D03*
D11*
X255588000Y-223044000D03*
D10*
X260668000Y-223044000D03*
X360045500Y-223044000D03*
D11*
X365125500Y-223044000D03*
D10*
X370205500Y-223044000D03*
X231458000Y-223044000D03*
D11*
X236538000Y-223044000D03*
D10*
X241618000Y-223044000D03*
X231458000Y-242094000D03*
D11*
X236538000Y-242094000D03*
D10*
X241618000Y-242094000D03*
X379095500Y-223044000D03*
D11*
X384175500Y-223044000D03*
D10*
X389255500Y-223044000D03*
D13*
X419775500Y-177944000D03*
X424775500Y-177944000D03*
D14*
X427875500Y-184944000D03*
X416675500Y-184944000D03*
D13*
X422275500Y-192444000D03*
X424775500Y-192444000D03*
D15*
X419775500Y-192444000D03*
D10*
X269558000Y-242094000D03*
D11*
X274638000Y-242094000D03*
D10*
X279718000Y-242094000D03*
X212408000Y-242094000D03*
D11*
X217488000Y-242094000D03*
D10*
X222568000Y-242094000D03*
X193358000Y-242094000D03*
D11*
X198438000Y-242094000D03*
D10*
X203518000Y-242094000D03*
X340995500Y-223044000D03*
D11*
X346075500Y-223044000D03*
D10*
X351155500Y-223044000D03*
X269558000Y-223044000D03*
D11*
X274638000Y-223044000D03*
D10*
X279718000Y-223044000D03*
X193358000Y-184944000D03*
D11*
X198438000Y-184944000D03*
D10*
X203518000Y-184944000D03*
X398145500Y-203994000D03*
D11*
X403225500Y-203994000D03*
D10*
X408305500Y-203994000D03*
X231458000Y-203994000D03*
D11*
X236538000Y-203994000D03*
D10*
X241618000Y-203994000D03*
X212408000Y-203994000D03*
D11*
X217488000Y-203994000D03*
D10*
X222568000Y-203994000D03*
X193358000Y-203994000D03*
D11*
X198438000Y-203994000D03*
D10*
X203518000Y-203994000D03*
X427355500Y-184944000D03*
D11*
X422275500Y-184944000D03*
D10*
X417195500Y-184944000D03*
X379095500Y-184944000D03*
D11*
X384175500Y-184944000D03*
D10*
X389255500Y-184944000D03*
X340995500Y-184944000D03*
D11*
X346075500Y-184944000D03*
D10*
X351155500Y-184944000D03*
X250508000Y-184944000D03*
D11*
X255588000Y-184944000D03*
D10*
X260668000Y-184944000D03*
X298768000Y-184944000D03*
D11*
X293688000Y-184944000D03*
D10*
X288608000Y-184944000D03*
X408305500Y-184944000D03*
D11*
X403225500Y-184944000D03*
D10*
X398145500Y-184944000D03*
X231458000Y-184944000D03*
D11*
X236538000Y-184944000D03*
D10*
X241618000Y-184944000D03*
X269558000Y-203994000D03*
D11*
X274638000Y-203994000D03*
D10*
X279718000Y-203994000D03*
X360045500Y-184944000D03*
D11*
X365125500Y-184944000D03*
D10*
X370205500Y-184944000D03*
X417195500Y-203994000D03*
D11*
X422275500Y-203994000D03*
D10*
X427355500Y-203994000D03*
X340995500Y-203994000D03*
D11*
X346075500Y-203994000D03*
D10*
X351155500Y-203994000D03*
X288608000Y-203994000D03*
D11*
X293688000Y-203994000D03*
D10*
X298768000Y-203994000D03*
X212408000Y-184944000D03*
D11*
X217488000Y-184944000D03*
D10*
X222568000Y-184944000D03*
X332105500Y-184944000D03*
D11*
X327025500Y-184944000D03*
D10*
X321945500Y-184944000D03*
X250508000Y-203994000D03*
D11*
X255588000Y-203994000D03*
D10*
X260668000Y-203994000D03*
X360045500Y-203994000D03*
D11*
X365125500Y-203994000D03*
D10*
X370205500Y-203994000D03*
X321945500Y-203994000D03*
D11*
X327025500Y-203994000D03*
D10*
X332105500Y-203994000D03*
X269558000Y-184944000D03*
D11*
X274638000Y-184944000D03*
D10*
X279718000Y-184944000D03*
X193358000Y-223044000D03*
D11*
X198438000Y-223044000D03*
D10*
X203518000Y-223044000D03*
D12*
X218637500Y-229242750D03*
X265587500Y-240692750D03*
X296437500Y-194469000D03*
X327087500Y-213519000D03*
X394798000Y-186994000D03*
X220237500Y-194468750D03*
D10*
X379084400Y-203992800D03*
D11*
X384164400Y-203992800D03*
D10*
X389244400Y-203992800D03*
D13*
X195928000Y-235064000D03*
X200928000Y-235064000D03*
D14*
X204028000Y-242064000D03*
X192828000Y-242064000D03*
D13*
X198428000Y-249564000D03*
X200928000Y-249564000D03*
D15*
X195928000Y-249564000D03*
D10*
X288608000Y-223044000D03*
D11*
X293688000Y-223044000D03*
D10*
X298768000Y-223044000D03*
X360045500Y-242094000D03*
D11*
X365125500Y-242094000D03*
D10*
X370205500Y-242094000D03*
D11*
X324644250Y-233839000D03*
D16*
X324644250Y-249079000D03*
D10*
X331470500Y-242094000D03*
D11*
X336550500Y-242094000D03*
D10*
X341630500Y-242094000D03*
D11*
X348456750Y-233839000D03*
D16*
X348456750Y-249079000D03*
D11*
X272256750Y-233839000D03*
D16*
X272256750Y-249079000D03*
D10*
X279083000Y-242094000D03*
D11*
X284163000Y-242094000D03*
D10*
X289243000Y-242094000D03*
D11*
X296069250Y-233839000D03*
D16*
X296069250Y-249079000D03*
D10*
X398145500Y-242094000D03*
D11*
X403225500Y-242094000D03*
D10*
X408305500Y-242094000D03*
X417195500Y-223044000D03*
D11*
X422275500Y-223044000D03*
D10*
X427355500Y-223044000D03*
X321945500Y-242094000D03*
D11*
X327025500Y-242094000D03*
D10*
X332105500Y-242094000D03*
X351155500Y-242094000D03*
D11*
X346075500Y-242094000D03*
D10*
X340995500Y-242094000D03*
X379095500Y-242094000D03*
D11*
X384175500Y-242094000D03*
D10*
X389255500Y-242094000D03*
D17*
X399144500Y-179859000D03*
X404924500Y-179859000D03*
D18*
X397714500Y-176209000D03*
D19*
X397714500Y-180389000D03*
D18*
X406354500Y-176209000D03*
D19*
X406354500Y-180389000D03*
D20*
X206502500Y-210993920D03*
D21*
X206502500Y-213533920D03*
X206502500Y-216073920D03*
M02*
